# Blender v2.80 (sub 75) OBJ File: 'fifa21_collars.blend'
# www.blender.org
o jersey_0_0_0_0_1_0_0_mesh_lod0:jersey_mat_jersey_mat.000
v -2.037870 292.213257 12.560054
v -2.095144 291.971588 13.312214
v -0.088527 292.119202 12.647050
v -4.805868 292.396942 12.879987
v -4.618779 292.562653 12.169557
v -4.792040 291.214691 13.205255
v -7.778903 292.247284 12.192131
v -7.586841 293.458862 11.902811
v -7.476674 293.671814 11.278143
v -8.004975 291.243652 12.489037
v -10.440207 293.500885 10.537320
v -11.134631 292.208130 10.826350
v -9.855365 294.781006 10.303688
v -9.569263 294.869904 9.805140
v -11.815478 290.892303 11.311517
v -12.313487 295.105164 8.590351
v -13.173746 294.263458 8.440969
v -14.175953 293.674469 8.160996
v -11.424787 296.097168 8.569354
v -10.959191 296.105804 8.340214
v -12.576491 297.329773 6.847680
v -13.498140 296.593658 6.593376
v -14.402414 295.968872 6.336824
v -12.165284 297.346405 6.635474
v -15.233150 291.412750 9.612481
v -14.472732 290.232025 11.295289
v -15.988456 292.936066 7.751498
v -15.688455 295.388367 5.931495
v -13.677372 298.636688 4.569364
v -13.215663 298.591064 4.452021
v -14.525640 297.999847 4.334074
v -15.374779 297.434570 4.072090
v -17.629993 290.539337 10.055768
v -17.937130 291.737732 8.360935
v -17.258675 288.726624 11.765358
v -18.502468 292.903107 6.871501
v -17.246824 294.831818 5.537825
v -16.705603 296.516541 3.691943
v -14.484039 300.042480 2.019692
v -13.975865 299.980591 1.943771
v -15.243678 299.392822 1.856759
v -16.129862 298.808533 1.675718
v -20.537083 288.649872 10.550700
v -20.731703 290.588928 8.708920
v -20.702961 291.936737 7.093820
v -20.186792 286.224030 12.620001
v -20.512245 292.829742 6.272486
v -19.449434 294.392853 5.133192
v -18.370148 296.050690 3.324840
v -17.412853 298.010651 1.405532
v -14.444550 301.153198 -0.321911
v -14.988024 301.277832 -0.325536
v -15.757064 300.658905 -0.518998
v -16.558815 300.074677 -0.652155
v -21.768494 293.588867 5.013405
v -20.382118 295.842621 3.037129
v -19.083805 297.498352 1.065845
v -17.815830 299.194305 -0.872693
v -14.549974 302.045593 -2.374646
v -15.050594 302.194061 -2.513822
v -15.774755 301.605743 -2.639485
v -16.584620 300.997467 -2.741307
v -17.772306 300.147552 -3.054433
v -19.411572 298.497467 -1.195260
v -21.058266 296.864258 0.867815
v -22.763220 294.742065 2.968284
v -14.006529 302.445099 -4.160470
v -15.104318 301.983429 -4.672463
v -14.451847 302.582581 -4.384013
v -15.864255 301.393921 -4.848320
v -25.222223 272.480316 18.865002
v -21.981316 272.901001 20.202095
v -25.617767 276.155426 17.121729
v -22.396923 276.574188 18.267582
v -18.975056 276.942352 19.287485
v -18.559347 273.254303 21.242512
v -26.048771 279.561676 15.052709
v -22.766203 279.993652 16.035681
v -19.417860 280.388916 16.971369
v -16.228449 280.598694 17.818964
v -15.746478 277.169891 20.043104
v -26.547853 282.687622 12.946209
v -23.187691 283.123505 13.861537
v -19.840147 283.507843 14.677107
v -16.531910 283.799988 15.559615
v -12.496282 280.856201 18.385138
v -13.123397 284.159607 16.061260
v -26.971106 285.445282 10.870842
v -16.855379 286.445770 13.553793
v -13.375870 286.454132 14.290090
v -9.278853 284.403534 16.539026
v -9.830561 286.521515 15.104511
v -27.397453 287.899811 8.843151
v -13.904539 288.521942 12.889512
v -10.282713 288.281738 14.043073
v -6.070198 286.445740 15.634842
v -6.622121 287.897919 14.964796
v -10.908894 289.679810 12.849730
v -7.335467 289.158356 14.101013
v -4.313231 287.470306 15.109987
v -5.227302 288.765472 14.410129
v -4.712696 289.181335 14.079139
v -8.213716 290.113678 13.078126
v -2.310134 286.546600 15.653467
v -4.778287 290.141388 13.488649
v -2.086922 289.726501 13.921098
v -2.222706 288.769012 14.461756
v -17.046949 300.408142 -5.229905
v -19.372595 299.327728 -3.444591
v -18.528812 299.489532 -5.740117
v -21.394131 297.859100 -1.465863
v -23.447973 295.840668 0.845992
v -13.252439 302.702820 -5.686314
v -14.329439 302.169250 -6.181894
v -15.052890 301.466278 -6.351896
v -13.633991 302.830078 -5.982779
v -16.071629 300.349792 -6.754302
v -17.230938 299.258148 -7.313886
v -21.248400 298.564636 -3.914547
v -20.432108 298.702057 -6.246275
v -19.216770 298.429321 -8.524567
v -23.873209 296.791443 -1.551664
v -23.779758 297.247711 -4.269179
v -12.496644 302.807434 -6.806224
v -13.829614 301.510498 -7.782009
v -13.332230 302.263763 -7.491626
v -14.716839 300.206390 -8.260808
v -12.811011 302.911743 -7.169788
v -22.970741 296.975098 -7.015506
v -12.846285 299.993591 -9.867432
v -12.037594 301.406555 -9.166668
v -11.483756 302.201385 -8.802283
v -11.083424 302.870392 -8.619642
v -10.718324 302.839111 -8.224867
v -25.647318 295.621307 -7.525121
v -10.656583 299.663055 -11.091651
v -10.047542 301.170746 -10.387131
v -9.543050 302.062836 -10.006401
v -9.142814 302.831238 -9.759221
v -7.896867 300.995453 -11.342103
v -7.671330 301.953339 -10.846299
v -8.812382 302.807648 -9.316519
v -7.501684 302.799652 -10.461908
v -5.407269 301.843018 -11.458290
v -8.242174 299.350250 -12.106133
v -5.497210 300.788025 -11.958534
v -7.311507 302.784729 -9.926069
v -5.279616 302.749664 -11.167321
v -2.832566 302.647156 -11.714143
v -2.889106 301.730804 -11.944853
v -5.101935 302.754242 -10.600633
v -5.649209 299.062073 -12.771036
v -2.900323 300.691162 -12.370929
v -0.088528 301.771912 -12.172954
v -0.088528 302.638550 -11.856181
v -2.727191 302.694214 -11.020426
v -2.909641 298.913269 -13.165364
v -0.110561 300.707489 -12.609087
v -0.088528 302.645355 -11.184913
v 2.655509 302.647095 -11.714143
v 2.550136 302.694214 -11.020423
v 2.712049 301.730804 -11.944853
v 2.723266 300.691162 -12.370931
v 0.007706 298.969788 -13.296286
v 0.007706 296.950348 -14.441769
v 2.925054 298.921204 -13.165365
v 5.320152 300.788025 -11.958535
v 5.230214 301.843048 -11.458290
v 4.924878 302.754211 -10.600635
v 5.102560 302.749664 -11.167321
v 3.093648 296.981323 -14.289310
v 6.023347 297.187927 -13.863507
v 5.664623 299.068420 -12.771036
v 7.719812 300.995453 -11.342107
v 7.324627 302.799652 -10.461911
v 7.494271 301.953339 -10.846302
v 7.134452 302.784760 -9.926070
v 6.291399 295.543915 -15.257416
v 9.295161 295.902740 -14.582938
v 8.840203 297.560089 -13.137918
v 8.256951 299.351776 -12.105733
v 9.870299 301.172180 -10.387351
v 9.365993 302.062836 -10.006403
v 8.965757 302.831238 -9.759222
v 8.635325 302.807648 -9.316520
v 10.671910 299.662811 -11.091290
v 11.528241 298.089355 -12.099854
v 11.858191 301.405457 -9.163074
v 11.306063 302.199280 -8.800661
v 10.900769 302.875549 -8.623679
v 10.541269 302.839111 -8.224868
v 12.870580 300.008698 -9.878224
v 13.976832 298.691620 -10.708709
v 13.641113 301.536224 -7.790930
v 13.136157 302.269745 -7.477175
v 12.630417 302.904205 -7.164704
v 12.312241 302.806641 -6.802362
v 14.756248 300.258850 -8.299888
v 13.448923 302.820038 -5.978071
v 14.122190 302.162689 -6.162681
v 14.859839 301.477539 -6.353263
v 15.811765 299.051666 -9.076497
v 16.097721 300.386902 -6.784727
v 13.066354 302.701508 -5.678976
v 14.244260 302.543457 -4.375088
v 14.875997 301.940186 -4.660870
v 15.651596 301.360474 -4.843299
v 13.793483 302.432037 -4.146603
v 14.850116 302.157684 -2.513434
v 15.556766 301.601166 -2.632034
v 14.344735 302.030182 -2.374748
v 14.835339 301.316315 -0.306178
v 15.611411 300.778748 -0.474029
v 14.296692 301.173157 -0.310367
v 14.326741 300.066956 2.036686
v 13.821342 299.992523 1.955249
v 13.505715 298.639038 4.574456
v 13.044692 298.587738 4.455747
v 12.399569 297.133850 6.847824
v 11.988375 297.142426 6.635585
v -26.290241 296.039246 -4.537701
v -26.378075 295.889862 -1.773907
v -29.214975 294.773651 -2.000736
v -28.867195 294.227753 0.478226
v -25.929394 295.184296 0.676578
v -28.354197 293.229279 2.628329
v -25.220922 294.065216 2.846863
v -27.860327 291.833527 4.828567
v -23.877937 292.506348 5.414056
v -27.659019 290.025330 6.842263
v -24.010166 290.522064 7.588884
v -23.874964 288.404480 9.581523
v -23.523943 285.871307 11.661220
v 2.293994 298.546570 -10.555604
v -0.088528 302.645355 -11.184913
v -0.004409 298.490540 -10.782494
v 2.550136 302.694214 -11.020423
v 4.465569 298.611145 -10.151808
v 4.924878 302.754211 -10.600635
v 7.134452 302.784760 -9.926070
v 7.207429 298.514465 -9.338731
v 8.635325 302.807648 -9.316520
v 8.961395 298.437012 -8.476808
v 10.541269 302.839111 -8.224868
v 11.064689 298.375732 -7.039704
v 12.312241 302.806641 -6.802362
v 12.127286 298.330078 -5.648337
v 13.066354 302.701508 -5.678976
v 12.474593 298.291229 -4.974775
v 13.793483 302.432037 -4.146603
v 12.868800 298.266418 -4.162152
v 14.344735 302.030182 -2.374748
v 13.340014 298.023224 -2.345284
v 14.296692 301.173157 -0.310367
v 13.482452 297.479248 -0.624275
v 13.821342 299.992523 1.955249
v 13.293907 296.559113 2.116623
v 13.044692 298.587738 4.455747
v 12.963145 295.724335 3.877568
v 11.988375 297.142426 6.635585
v 12.291068 294.810181 5.590257
v -2.091020 290.788574 13.629058
v -0.088527 289.612915 14.037500
v -0.088527 290.622833 13.726999
v -0.088527 291.839142 13.388623
v 1.913967 290.788574 13.629058
v 1.909868 289.726074 13.921098
v -29.289801 294.895142 -4.824817
v 1.918090 291.971588 13.312216
v 4.614985 291.214691 13.205255
v 4.601233 290.141388 13.488649
v -29.019545 294.311646 -7.919698
v 1.860816 292.213257 12.560054
v 4.628814 292.396942 12.879987
v 7.601849 292.247284 12.192131
v 7.827921 291.246094 12.489036
v -28.147156 292.691437 -10.952521
v 4.441725 292.562653 12.169557
v 7.409786 293.458832 11.902811
v 10.263149 293.341125 10.537318
v 10.957577 292.086731 10.826350
v 7.299621 293.671814 11.278142
v 9.678311 294.624786 10.303686
v 8.036662 290.114014 13.078126
v 12.136096 294.809967 8.590422
v 12.996770 294.017548 8.441615
v 11.830963 290.818542 11.311616
v 14.191591 293.561981 8.162339
v 9.392209 294.711945 9.805140
v 11.247730 295.790985 8.569353
v 13.316016 296.462097 6.596711
v 14.225723 295.908844 6.340444
v 10.924313 289.632111 12.849734
v 7.158413 289.158020 14.101015
v 4.535642 289.181335 14.079139
v 14.488442 290.232635 11.296208
v 15.248907 291.386139 9.613537
v 16.004463 292.938843 7.752392
v 15.706583 295.417419 5.936025
v 10.782135 295.801697 8.340213
v 14.337631 298.007996 4.356098
v 15.208929 297.463470 4.102374
v 17.839102 290.479126 10.011111
v 18.132271 291.743866 8.367888
v 18.539932 292.912994 6.887565
v 17.267565 294.855469 5.547632
v 16.753561 296.949554 3.723863
v 15.086558 299.447510 1.910297
v 15.999849 298.913177 1.755750
v 20.978374 290.545471 8.695266
v 20.930107 291.938416 7.092613
v 20.583035 292.852295 6.294905
v 19.434380 294.410004 5.166995
v 18.430984 296.499298 3.390515
v 17.508509 298.198792 1.513250
v 16.449823 300.254303 -0.560848
v 21.777170 293.533478 4.967541
v 20.384434 295.952545 3.103163
v 19.192026 297.709686 1.200909
v 24.209797 290.493408 7.545224
v 24.055433 292.489380 5.393435
v 17.950232 299.475861 -0.747062
v 22.795631 294.774963 2.986906
v 21.094429 297.057678 0.961567
v 19.560268 298.794983 -1.064158
v 17.833084 300.264832 -3.040392
v 16.407454 301.045837 -2.745391
v 25.359070 294.036041 2.821271
v 23.491512 295.912231 0.882770
v 21.460314 298.064178 -1.357150
v 19.430965 299.419647 -3.424018
v 27.679691 290.060944 6.816664
v 27.855452 291.843536 4.819938
v 18.567770 299.533875 -5.773512
v 17.064711 300.417419 -5.232342
v 28.345573 293.233612 2.626124
v 26.020332 295.143738 0.658188
v 23.925783 296.912170 -1.519646
v 23.845583 297.352875 -4.280010
v 21.320238 298.653412 -3.893414
v 20.593515 298.715790 -6.354335
v 19.336878 298.371094 -8.594916
v 17.283871 299.315979 -7.368969
v 26.389322 295.885315 -1.776485
v 28.854300 294.228912 0.490248
v 23.084686 297.067780 -7.047017
v 21.735664 296.269745 -9.620133
v 17.467081 297.752563 -10.656280
v 25.829390 295.697845 -7.508342
v 26.371094 296.165741 -4.537418
v 29.189056 294.783600 -1.981914
v 24.734138 294.502960 -10.560552
v 19.682570 295.312561 -12.160934
v 14.987704 297.050201 -12.316363
v 29.276983 294.906738 -4.800886
v 28.264723 292.928680 -10.883595
v 29.042986 294.348358 -7.841250
v 27.264706 290.543304 -13.702051
v 22.503750 291.914520 -14.000441
v 16.642622 294.402161 -14.170443
v 18.039593 291.160706 -16.148817
v 12.201756 296.384796 -13.580030
v 22.561455 287.598602 -17.065445
v 13.297857 293.544647 -15.532714
v 26.618992 287.283325 -16.556810
v 18.592232 287.483307 -18.450270
v 14.233823 290.410858 -17.346157
v 9.977354 292.779022 -16.269314
v 10.782135 295.801697 8.340213
v 11.398956 293.132904 7.328069
v 9.392209 294.711945 9.805140
v 10.336479 292.137299 8.821579
v 7.299621 293.671814 11.278142
v 7.615110 290.143402 11.374216
v 4.441725 292.562653 12.169557
v 4.454711 289.591217 12.581211
v 1.860816 292.213257 12.560054
v 1.807588 289.278748 12.803970
v -0.088527 292.119202 12.647050
v -0.088527 289.133118 12.756553
v -2.007139 289.304260 12.738241
v -2.037870 292.213257 12.560054
v -4.579374 289.225006 12.478934
v -4.618779 292.562653 12.169557
v -7.615118 290.143402 11.374216
v -7.476674 293.671814 11.278143
v -10.336487 292.137299 8.821579
v -9.569263 294.869904 9.805140
v -11.398963 293.132874 7.328069
v -10.959191 296.105804 8.340214
v -12.291077 294.810150 5.590257
v -12.165284 297.346405 6.635474
v -12.963153 295.724335 3.877570
v -13.215663 298.591064 4.452021
v -13.293916 296.559082 2.116625
v -13.975865 299.980591 1.943771
v -13.482459 297.479248 -0.624272
v -14.444550 301.153198 -0.321911
v -13.340020 298.023224 -2.345281
v -14.549974 302.045593 -2.374646
v -12.868807 298.266449 -4.162150
v -14.006529 302.445099 -4.160470
v -12.474601 298.291229 -4.974772
v -13.252439 302.702820 -5.686314
v -12.127294 298.330078 -5.648335
v -12.496644 302.807434 -6.806224
v -11.064695 298.375763 -7.039701
v -10.718324 302.839111 -8.224867
v -8.961406 298.437012 -8.476807
v -8.812382 302.807648 -9.316519
v -7.207439 298.514496 -9.338729
v -7.311507 302.784729 -9.926069
v -5.101935 302.754242 -10.600633
v -4.465579 298.611145 -10.151808
v -2.727191 302.694214 -11.020426
v -2.294004 298.546539 -10.555604
v -0.088528 302.645355 -11.184913
v -0.004409 298.490540 -10.782494
v 22.313253 283.853241 -19.477919
v 26.004795 283.591278 -18.730415
v 14.703571 286.837677 -19.211868
v 18.546368 283.695648 -20.449028
v 10.626013 289.622650 -17.827303
v 6.681186 292.310333 -16.955801
v 25.086470 279.482971 -20.419178
v 21.601715 279.568573 -21.212376
v 14.773452 283.128601 -20.915741
v 10.967451 286.176544 -19.550606
v 18.096212 279.416412 -21.997862
v 7.104700 289.163147 -18.276592
v 3.198875 295.320984 -15.655246
v 3.354476 292.005432 -17.378105
v 20.958776 275.558563 -22.313059
v 24.254635 275.572449 -21.442747
v 14.591640 279.019073 -22.334148
v 11.087919 282.614471 -21.018463
v 7.299246 285.791199 -19.755955
v 17.688475 275.422272 -22.993578
v 3.563287 288.915436 -18.636189
v 23.634760 271.946259 -22.112753
v 20.460360 271.807098 -23.127205
v 14.382200 275.252777 -23.243736
v 11.048375 278.716919 -22.351210
v 7.399664 282.225342 -20.896528
v 3.628184 285.588074 -19.895128
v 17.353764 271.732239 -23.692854
v 14.166636 271.646606 -23.819347
v 10.930420 275.079651 -23.192230
v 7.480818 278.334473 -22.156139
v 3.704190 282.113495 -21.032780
v 10.791143 271.524780 -23.697124
v 7.474840 274.680115 -22.953329
v 3.808308 278.191315 -22.000004
v 7.388740 271.277100 -23.425932
v 3.839315 274.641235 -22.809278
v 0.160678 274.634674 -22.758112
v 0.170364 278.170349 -21.925510
v 3.799886 271.291504 -23.304548
v 0.140002 271.289124 -23.271399
v -23.634762 271.946259 -22.112753
v -20.460365 271.807098 -23.127951
v -24.254641 275.572449 -21.442745
v -20.958782 275.558563 -22.313057
v -17.359274 271.732147 -23.696152
v -17.693981 275.422150 -22.995222
v -14.040691 271.640045 -23.821262
v -14.265387 275.211151 -23.254381
v -10.583349 271.460144 -23.714016
v -18.101723 279.416290 -21.997860
v -14.459971 279.017181 -22.335602
v -10.728314 274.924225 -23.227438
v -10.806344 278.638153 -22.380394
v -7.126632 271.273010 -23.427803
v -7.206555 274.679962 -22.955200
v -7.212487 278.334808 -22.156134
v -14.496028 283.177490 -20.893209
v -10.813629 282.694397 -20.969410
v -7.112513 282.304901 -20.833092
v -3.532681 274.650726 -22.802246
v -3.511950 271.272003 -23.304592
v -3.490168 278.234192 -21.979059
v -3.423849 282.115570 -20.827291
v -7.018151 285.802643 -19.511597
v -10.700489 286.216522 -19.420654
v -3.367426 285.645142 -19.871531
v 0.116926 282.132538 -21.158960
v 0.098483 285.530731 -19.903133
v -6.855235 289.198517 -18.221348
v -3.328074 288.924316 -18.567156
v 0.101732 288.851837 -18.763128
v -3.268560 291.993164 -17.379780
v 0.028539 291.914673 -17.508034
v -10.378524 289.646698 -17.791409
v -6.555838 292.274414 -16.952869
v -0.001639 295.246155 -15.793011
v -3.191587 295.304169 -15.654746
v -6.277140 295.508301 -15.232613
v -9.831127 292.703888 -16.256493
v -3.078236 296.982727 -14.289310
v -9.248405 295.840607 -14.537648
v -6.008014 297.189362 -13.863581
v -8.823262 297.559418 -13.134116
v -13.186410 293.488739 -15.579479
v -12.152834 296.338348 -13.541533
v -13.964496 290.376251 -17.380770
v -16.563122 294.349670 -14.238250
v -17.749136 291.120667 -16.231485
v -14.927893 297.038818 -12.284270
v -11.503288 298.082428 -12.082846
v -18.238678 287.516815 -18.504826
v -14.408375 286.848785 -19.212034
v -19.614729 295.265411 -12.238672
v -22.215139 291.873810 -14.140108
v -22.171383 287.604919 -17.201965
v -17.385235 297.759003 -10.603613
v -13.935898 298.650482 -10.666551
v -18.200480 283.717682 -20.467220
v -21.972187 284.005066 -19.767046
v -24.468550 294.334656 -10.573979
v -21.622282 296.170868 -9.617256
v -27.071529 290.371796 -13.930501
v -26.394432 287.176727 -16.872549
v -25.824110 283.757874 -19.125235
v -15.751492 298.967834 -8.997680
v -21.601721 279.568573 -21.212374
v -25.086470 279.482971 -20.419180
v 27.435717 287.946838 8.794572
v 27.041721 285.475800 10.822954
v 24.087309 288.386627 9.529496
v 23.746773 285.859985 11.610806
v 26.587511 282.699677 12.956235
v 20.800690 288.594360 10.519101
v 23.279423 283.068451 13.868229
v 20.459797 286.182404 12.602690
v 26.041422 279.514771 15.098243
v 17.483118 288.719849 11.798042
v 19.952850 283.410248 14.771696
v 22.775543 279.920746 16.089617
v 17.056599 286.458618 13.639016
v 25.613060 276.148041 17.159670
v 13.919994 288.525574 12.889604
v 16.650618 283.745941 15.647370
v 19.431046 280.276611 16.994898
v 22.383427 276.525787 18.348059
v 13.453045 286.420135 14.325470
v 25.207581 272.505737 18.871761
v 10.298131 288.256500 14.043073
v 16.296764 280.565491 17.811810
v 13.138582 284.166107 16.057657
v 18.980764 276.907562 19.317070
v 21.988461 272.902588 20.211510
v 9.731972 286.539093 15.068240
v 6.541302 287.902771 14.964799
v 15.827645 277.301544 19.937643
v 12.561726 280.842834 18.376764
v 9.279350 284.406525 16.537575
v 18.559025 273.281769 21.249599
v 6.085611 286.448578 15.634844
v 15.265156 273.622253 21.861437
v 12.070719 277.446228 20.372780
v 8.994514 280.938965 18.673891
v 5.343600 284.312439 16.710039
v 11.652999 273.898071 22.188568
v 8.637913 277.570374 20.516327
v 5.515162 280.967590 18.745737
v 2.325550 286.552277 15.653467
v 2.419113 283.891632 17.008352
v 8.360328 273.986542 22.254272
v 5.363555 277.627167 20.477228
v 2.466102 280.760834 18.741789
v 0.007708 285.944550 16.057190
v 0.007708 283.522980 17.138477
v 5.185880 274.004578 22.107075
v 2.418999 277.534027 20.341043
v 0.023521 277.530640 20.176401
v 0.046292 280.655243 18.640484
v -2.403700 283.891663 17.008350
v -2.381612 280.758148 18.718609
v 2.297294 273.911621 21.902122
v 0.001198 273.907593 21.746223
v -2.385179 277.476959 20.278732
v -2.294919 273.902039 21.881470
v -5.182901 274.016724 22.102425
v -8.356183 273.983765 22.247854
v -11.647279 273.889130 22.171261
v -15.263887 273.628418 21.871008
v -5.333876 277.668793 20.446417
v -8.614081 277.575653 20.517582
v -12.051285 277.460266 20.388206
v -5.431140 280.988647 18.753668
v -8.929485 280.954285 18.678694
v -5.343416 284.311066 16.710327
v -0.088527 288.590790 14.659450
v 2.045652 288.768768 14.461757
v 4.136178 287.472504 15.109989
v 5.050247 288.765472 14.410130
vt 0.493896 0.466309
vt 0.493652 0.463379
vt 0.500000 0.465820
vt 0.485107 0.463867
vt 0.485596 0.466797
vt 0.485107 0.459473
vt 0.476074 0.462402
vt 0.477051 0.466797
vt 0.477539 0.469238
vt 0.475098 0.458496
vt 0.467529 0.465820
vt 0.464844 0.461426
vt 0.469727 0.470215
vt 0.470459 0.472168
vt 0.462158 0.457031
vt 0.461670 0.471680
vt 0.458252 0.469238
vt 0.454590 0.468262
vt 0.465088 0.474609
vt 0.466553 0.475586
vt 0.462158 0.478027
vt 0.458252 0.477051
vt 0.454834 0.476074
vt 0.463623 0.479004
vt 0.450684 0.459961
vt 0.453125 0.454102
vt 0.447998 0.466797
vt 0.449951 0.475586
vt 0.459717 0.483887
vt 0.461426 0.483887
vt 0.456055 0.483398
vt 0.452637 0.482910
vt 0.442139 0.457031
vt 0.441406 0.462402
vt 0.443115 0.449219
vt 0.440430 0.467773
vt 0.444580 0.475098
vt 0.447021 0.482422
vt 0.458984 0.491211
vt 0.460938 0.490723
vt 0.455566 0.490723
vt 0.451660 0.490723
vt 0.431152 0.451172
vt 0.431152 0.459473
vt 0.431885 0.466309
vt 0.431641 0.440918
vt 0.432861 0.470215
vt 0.437744 0.475098
vt 0.441406 0.481934
vt 0.446533 0.490234
vt 0.460693 0.498535
vt 0.458740 0.498535
vt 0.455322 0.498047
vt 0.451660 0.498047
vt 0.428955 0.474609
vt 0.435303 0.483398
vt 0.440674 0.490723
vt 0.446289 0.498047
vt 0.460938 0.503418
vt 0.458984 0.504150
vt 0.455811 0.504150
vt 0.452393 0.504395
vt 0.447510 0.505127
vt 0.440430 0.498535
vt 0.433594 0.490723
vt 0.426270 0.482910
vt 0.461914 0.508301
vt 0.457275 0.509521
vt 0.460205 0.508789
vt 0.454102 0.510254
vt 0.422852 0.386230
vt 0.421387 0.399902
vt 0.409424 0.384766
vt 0.408691 0.398438
vt 0.434570 0.401367
vt 0.436035 0.387695
vt 0.420898 0.416992
vt 0.407959 0.416992
vt 0.433594 0.416992
vt 0.445312 0.417480
vt 0.446289 0.403320
vt 0.407715 0.430664
vt 0.420166 0.430176
vt 0.432617 0.429688
vt 0.444580 0.429688
vt 0.458496 0.417969
vt 0.457275 0.430176
vt 0.444092 0.439941
vt 0.456543 0.439453
vt 0.470215 0.431152
vt 0.468506 0.439453
vt 0.455078 0.447266
vt 0.467285 0.446289
vt 0.480713 0.439453
vt 0.479004 0.444824
vt 0.465088 0.451660
vt 0.476807 0.449707
vt 0.486328 0.444336
vt 0.483643 0.449219
vt 0.485107 0.451172
vt 0.474121 0.454102
vt 0.492920 0.440918
vt 0.485107 0.455566
vt 0.493652 0.454102
vt 0.492920 0.450195
vt 0.449463 0.511719
vt 0.441650 0.506348
vt 0.444092 0.513672
vt 0.433594 0.499023
vt 0.425293 0.490723
vt 0.463379 0.510986
vt 0.459229 0.513184
vt 0.456299 0.514160
vt 0.462158 0.511963
vt 0.451904 0.516357
vt 0.447510 0.518799
vt 0.434570 0.507568
vt 0.436768 0.515869
vt 0.440430 0.523682
vt 0.424805 0.499023
vt 0.425537 0.508301
vt 0.465088 0.512695
vt 0.459717 0.517578
vt 0.462158 0.515869
vt 0.455811 0.520752
vt 0.464111 0.513916
vt 0.427734 0.520264
vt 0.461426 0.525146
vt 0.464844 0.520752
vt 0.467041 0.518311
vt 0.468506 0.516357
vt 0.469238 0.514893
vt 0.418213 0.522461
vt 0.468018 0.528076
vt 0.470459 0.523438
vt 0.472168 0.520264
vt 0.473633 0.517822
vt 0.476807 0.524902
vt 0.477539 0.521484
vt 0.474365 0.516113
vt 0.478027 0.518555
vt 0.483887 0.522217
vt 0.475342 0.530518
vt 0.483643 0.525879
vt 0.478271 0.516846
vt 0.484375 0.519043
vt 0.491699 0.519531
vt 0.491455 0.522705
vt 0.484375 0.517334
vt 0.483154 0.531982
vt 0.491455 0.526367
vt 0.500000 0.522705
vt 0.500000 0.519531
vt 0.491699 0.517334
vt 0.491211 0.532471
vt 0.500000 0.526367
vt 0.500000 0.517334
vt 0.508301 0.519531
vt 0.508301 0.517334
vt 0.508301 0.522705
vt 0.508301 0.526367
vt 0.500000 0.532471
vt 0.500000 0.540039
vt 0.508789 0.532471
vt 0.516113 0.525879
vt 0.516113 0.522217
vt 0.515625 0.517334
vt 0.515625 0.519043
vt 0.509277 0.539795
vt 0.518555 0.538818
vt 0.517090 0.531982
vt 0.523438 0.524658
vt 0.521973 0.518555
vt 0.522461 0.521484
vt 0.521973 0.516846
vt 0.520020 0.546143
vt 0.529297 0.544189
vt 0.527344 0.536865
vt 0.524902 0.530273
vt 0.529297 0.523193
vt 0.527832 0.520264
vt 0.526367 0.517822
vt 0.525879 0.516113
vt 0.532227 0.528076
vt 0.535156 0.533691
vt 0.535156 0.520752
vt 0.533203 0.518311
vt 0.531738 0.516357
vt 0.530762 0.514893
vt 0.538574 0.525146
vt 0.542480 0.529297
vt 0.540039 0.517578
vt 0.537598 0.515869
vt 0.535645 0.513916
vt 0.534668 0.512695
vt 0.544434 0.520752
vt 0.537598 0.511963
vt 0.540527 0.513184
vt 0.543457 0.514160
vt 0.548340 0.524170
vt 0.548340 0.516113
vt 0.536621 0.510986
vt 0.539551 0.508789
vt 0.542480 0.509766
vt 0.545410 0.510498
vt 0.538086 0.508301
vt 0.540527 0.504150
vt 0.543945 0.504395
vt 0.539062 0.503418
vt 0.541016 0.498535
vt 0.544434 0.498535
vt 0.539062 0.498535
vt 0.541016 0.491211
vt 0.539062 0.490723
vt 0.540039 0.483887
vt 0.538574 0.483887
vt 0.537598 0.478027
vt 0.536133 0.479004
vt 0.416260 0.508545
vt 0.416016 0.499023
vt 0.405762 0.499023
vt 0.406250 0.489746
vt 0.416504 0.490234
vt 0.407227 0.481934
vt 0.417969 0.481934
vt 0.408203 0.472656
vt 0.421387 0.471680
vt 0.407959 0.463867
vt 0.419922 0.462402
vt 0.407471 0.454102
vt 0.419434 0.453125
vt 0.407471 0.442871
vt 0.419678 0.442383
vt 0.527344 0.508545
vt 0.529785 0.482422
vt 0.529297 0.508545
vt 0.527832 0.482422
vt 0.526367 0.508545
vt 0.526367 0.482422
vt 0.524902 0.482422
vt 0.524414 0.508545
vt 0.523438 0.482422
vt 0.523438 0.508545
vt 0.521973 0.482422
vt 0.521484 0.508545
vt 0.520508 0.482422
vt 0.520996 0.508545
vt 0.520020 0.482422
vt 0.520020 0.508545
vt 0.519043 0.482422
vt 0.518555 0.508545
vt 0.517578 0.482422
vt 0.517578 0.508545
vt 0.516113 0.482422
vt 0.515137 0.508545
vt 0.514648 0.482422
vt 0.514160 0.508545
vt 0.512207 0.482422
vt 0.512207 0.508545
vt 0.510254 0.482422
vt 0.510254 0.508545
vt 0.493652 0.458496
vt 0.500000 0.454102
vt 0.500000 0.458008
vt 0.500000 0.462891
vt 0.506348 0.458496
vt 0.505859 0.454102
vt 0.506348 0.463379
vt 0.514648 0.459473
vt 0.514648 0.455566
vt 0.406006 0.509766
vt 0.406982 0.522949
vt 0.505859 0.466309
vt 0.514648 0.463867
vt 0.523926 0.462402
vt 0.524414 0.458496
vt 0.408447 0.537354
vt 0.514160 0.466797
vt 0.522949 0.466797
vt 0.532227 0.465820
vt 0.534668 0.461426
vt 0.522461 0.469238
vt 0.530273 0.470215
vt 0.525391 0.454102
vt 0.538086 0.471191
vt 0.541504 0.469238
vt 0.538086 0.457031
vt 0.545410 0.467773
vt 0.529297 0.472168
vt 0.534668 0.474609
vt 0.541504 0.477051
vt 0.544922 0.476074
vt 0.534668 0.451660
vt 0.522461 0.450195
vt 0.514160 0.451660
vt 0.546875 0.454102
vt 0.549316 0.459961
vt 0.551758 0.466797
vt 0.550293 0.475586
vt 0.533203 0.475586
vt 0.543457 0.483398
vt 0.546875 0.482910
vt 0.557617 0.457031
vt 0.558594 0.462402
vt 0.559570 0.467773
vt 0.555664 0.475098
vt 0.552246 0.482910
vt 0.544434 0.490723
vt 0.547852 0.490723
vt 0.568848 0.459473
vt 0.567871 0.466309
vt 0.566895 0.470215
vt 0.562500 0.475098
vt 0.558594 0.482910
vt 0.553711 0.490723
vt 0.547852 0.498535
vt 0.570312 0.474609
vt 0.564941 0.483398
vt 0.559570 0.490723
vt 0.580078 0.462402
vt 0.578613 0.471680
vt 0.553223 0.498535
vt 0.573730 0.482910
vt 0.566406 0.490723
vt 0.559570 0.498535
vt 0.552734 0.505615
vt 0.546875 0.504883
vt 0.582031 0.481934
vt 0.574707 0.490723
vt 0.566406 0.499023
vt 0.558594 0.506348
vt 0.591797 0.463867
vt 0.591797 0.472656
vt 0.556152 0.513672
vt 0.550293 0.511963
vt 0.592773 0.481934
vt 0.583496 0.490234
vt 0.575195 0.499023
vt 0.574219 0.508301
vt 0.565430 0.507568
vt 0.562988 0.515869
vt 0.559570 0.523682
vt 0.552734 0.518799
vt 0.583984 0.499023
vt 0.593750 0.489746
vt 0.572266 0.519531
vt 0.568359 0.530029
vt 0.554688 0.530273
vt 0.582031 0.522461
vt 0.583496 0.508545
vt 0.594238 0.499023
vt 0.578613 0.535156
vt 0.562500 0.539062
vt 0.547363 0.536133
vt 0.593750 0.509766
vt 0.591309 0.537354
vt 0.593262 0.522949
vt 0.588867 0.552246
vt 0.572754 0.550781
vt 0.553223 0.545410
vt 0.557617 0.556396
vt 0.538574 0.540771
vt 0.573730 0.566162
vt 0.542480 0.550049
vt 0.587891 0.565430
vt 0.559570 0.567871
vt 0.545410 0.559326
vt 0.531738 0.552734
vt 0.508789 0.482422
vt 0.508301 0.508545
vt 0.506836 0.482422
vt 0.506836 0.508545
vt 0.505371 0.482422
vt 0.504395 0.508545
vt 0.502930 0.482422
vt 0.502441 0.508545
vt 0.500977 0.482422
vt 0.500488 0.508545
vt 0.499512 0.482422
vt 0.499512 0.508545
vt 0.498779 0.508545
vt 0.498535 0.482422
vt 0.497559 0.508545
vt 0.497070 0.482422
vt 0.495605 0.508545
vt 0.494629 0.482422
vt 0.492920 0.508545
vt 0.492920 0.482422
vt 0.491455 0.508545
vt 0.491211 0.482422
vt 0.489746 0.508545
vt 0.489502 0.482422
vt 0.487793 0.508545
vt 0.487549 0.482422
vt 0.486084 0.508545
vt 0.485596 0.482422
vt 0.484619 0.508545
vt 0.483643 0.482422
vt 0.482666 0.508545
vt 0.482422 0.482422
vt 0.481445 0.508545
vt 0.481201 0.482422
vt 0.480225 0.508545
vt 0.480225 0.482422
vt 0.479248 0.508545
vt 0.479248 0.482422
vt 0.478516 0.508545
vt 0.477783 0.482422
vt 0.476807 0.508545
vt 0.476562 0.482422
vt 0.475342 0.508545
vt 0.475342 0.482422
vt 0.473877 0.482422
vt 0.473877 0.508545
vt 0.472168 0.482422
vt 0.472656 0.508545
vt 0.470459 0.482422
vt 0.470703 0.508545
vt 0.573242 0.579590
vt 0.586914 0.579102
vt 0.547363 0.570312
vt 0.560059 0.580811
vt 0.533691 0.561523
vt 0.521484 0.554443
vt 0.585449 0.593506
vt 0.571777 0.594238
vt 0.547852 0.582520
vt 0.535156 0.572021
vt 0.559570 0.595215
vt 0.522461 0.562500
vt 0.510254 0.547363
vt 0.510254 0.555176
vt 0.569824 0.607422
vt 0.583984 0.606689
vt 0.547852 0.596191
vt 0.535645 0.583496
vt 0.523438 0.572998
vt 0.558594 0.607666
vt 0.511230 0.563232
vt 0.583008 0.618896
vt 0.569824 0.619385
vt 0.547852 0.608154
vt 0.536133 0.596436
vt 0.523438 0.584473
vt 0.511230 0.573486
vt 0.558105 0.619629
vt 0.547363 0.619629
vt 0.536133 0.608643
vt 0.524414 0.597656
vt 0.511719 0.584961
vt 0.535645 0.619873
vt 0.524414 0.608887
vt 0.512207 0.597900
vt 0.524414 0.619873
vt 0.512695 0.609131
vt 0.500000 0.609131
vt 0.500000 0.597900
vt 0.512207 0.619629
vt 0.500000 0.619873
vt 0.416016 0.606689
vt 0.429932 0.607422
vt 0.416992 0.618896
vt 0.429932 0.619385
vt 0.441895 0.619629
vt 0.441406 0.607666
vt 0.452881 0.619629
vt 0.452148 0.608154
vt 0.440674 0.595215
vt 0.452393 0.596191
vt 0.464355 0.619873
vt 0.463867 0.608643
vt 0.463867 0.596436
vt 0.475586 0.608887
vt 0.475830 0.619873
vt 0.475830 0.597656
vt 0.452393 0.582520
vt 0.464355 0.583496
vt 0.476318 0.584473
vt 0.487305 0.609131
vt 0.487549 0.619629
vt 0.487793 0.597900
vt 0.488281 0.584961
vt 0.476807 0.572998
vt 0.464844 0.572021
vt 0.488770 0.573486
vt 0.500000 0.584961
vt 0.500000 0.573486
vt 0.477539 0.562500
vt 0.489014 0.563232
vt 0.500000 0.563477
vt 0.489258 0.555176
vt 0.500000 0.555420
vt 0.466064 0.561523
vt 0.478516 0.554688
vt 0.500000 0.547852
vt 0.489990 0.547363
vt 0.479980 0.546143
vt 0.468262 0.552979
vt 0.490723 0.539795
vt 0.470459 0.544189
vt 0.481689 0.538818
vt 0.472900 0.536865
vt 0.457520 0.550049
vt 0.461426 0.540771
vt 0.454590 0.559326
vt 0.446777 0.545410
vt 0.442383 0.556396
vt 0.452881 0.536133
vt 0.464844 0.533691
vt 0.440430 0.567871
vt 0.452637 0.570312
vt 0.437256 0.539062
vt 0.427490 0.550781
vt 0.426514 0.566162
vt 0.445557 0.530273
vt 0.457520 0.529297
vt 0.440186 0.580811
vt 0.426758 0.579590
vt 0.421143 0.535156
vt 0.431641 0.530029
vt 0.410889 0.552246
vt 0.411865 0.565430
vt 0.413086 0.579102
vt 0.451904 0.524414
vt 0.428467 0.594238
vt 0.414551 0.593506
vt 0.592285 0.454102
vt 0.580566 0.453125
vt 0.592285 0.442871
vt 0.580566 0.442383
vt 0.592285 0.430664
vt 0.568848 0.451172
vt 0.579590 0.430176
vt 0.568359 0.440918
vt 0.592285 0.416016
vt 0.557129 0.449219
vt 0.567383 0.429688
vt 0.579102 0.416504
vt 0.556152 0.439941
vt 0.591797 0.398926
vt 0.544922 0.447266
vt 0.555176 0.429688
vt 0.566406 0.416992
vt 0.578613 0.399902
vt 0.543945 0.439453
vt 0.590820 0.385254
vt 0.532715 0.445801
vt 0.554688 0.417480
vt 0.542969 0.430176
vt 0.565430 0.401367
vt 0.577148 0.386719
vt 0.531250 0.439453
vt 0.520508 0.444824
vt 0.553711 0.403320
vt 0.541504 0.417969
vt 0.529785 0.431152
vt 0.563965 0.388672
vt 0.519043 0.439453
vt 0.552246 0.389648
vt 0.540527 0.404297
vt 0.529785 0.418457
vt 0.517090 0.431641
vt 0.539551 0.390625
vt 0.528809 0.405273
vt 0.518066 0.418945
vt 0.507324 0.440918
vt 0.507324 0.430176
vt 0.528320 0.391113
vt 0.517578 0.405273
vt 0.507812 0.418945
vt 0.500000 0.438477
vt 0.500000 0.429199
vt 0.517578 0.391602
vt 0.507812 0.405273
vt 0.500000 0.405762
vt 0.500000 0.419434
vt 0.492432 0.430176
vt 0.492188 0.418945
vt 0.507812 0.391602
vt 0.499756 0.392090
vt 0.491943 0.405273
vt 0.492432 0.391602
vt 0.482666 0.391602
vt 0.482178 0.405273
vt 0.471924 0.391113
vt 0.471191 0.405273
vt 0.460449 0.390625
vt 0.459473 0.404297
vt 0.447998 0.389160
vt 0.482178 0.418945
vt 0.469971 0.418457
vt 0.482910 0.431641
vt 0.500000 0.449219
vt 0.506348 0.450195
vt 0.513184 0.444336
vt 0.516113 0.449219
vn 0.1100 0.1982 -0.9740
vn -0.0261 0.5762 0.8169
vn 0.0093 0.2225 -0.9749
vn -0.0724 0.5578 0.8268
vn 0.2906 0.1469 -0.9455
vn -0.1672 0.2668 0.9491
vn -0.3039 0.3090 0.9012
vn -0.1812 0.5459 0.8180
vn 0.5825 0.1605 -0.7968
vn -0.2554 0.4139 0.8738
vn -0.4336 0.3695 0.8219
vn -0.3938 0.4392 0.8075
vn -0.2937 0.5528 0.7799
vn 0.7515 0.1817 -0.6343
vn -0.2741 0.6239 0.7318
vn -0.5117 0.4330 0.7421
vn -0.4799 0.4645 0.7443
vn -0.3881 0.5628 0.7298
vn -0.3558 0.5894 0.7253
vn 0.8707 0.2268 -0.4365
vn -0.3893 0.6562 0.6464
vn -0.5622 0.5119 0.6495
vn -0.5253 0.5429 0.6552
vn 0.9147 0.2661 -0.3040
vn -0.2488 0.6953 0.6743
vn -0.2046 0.6832 0.7010
vn -0.3051 0.6414 0.7039
vn -0.4431 0.6108 0.6562
vn -0.4010 0.7177 0.5693
vn 0.9408 0.3100 -0.1375
vn -0.5800 0.5859 0.5659
vn -0.5469 0.6143 0.5689
vn -0.2389 0.6951 0.6781
vn -0.2250 0.7416 0.6320
vn -0.2497 0.6008 0.7594
vn -0.2487 0.6820 0.6878
vn -0.3091 0.6891 0.6554
vn -0.4444 0.6876 0.5743
vn -0.3946 0.7608 0.5152
vn 0.9410 0.3384 0.0053
vn -0.5879 0.6352 0.5009
vn -0.5531 0.6575 0.5116
vn -0.2740 0.6141 0.7402
vn -0.2520 0.6941 0.6744
vn -0.2327 0.7292 0.6435
vn -0.2689 0.5772 0.7711
vn -0.2480 0.6889 0.6811
vn -0.2612 0.7205 0.6424
vn -0.2799 0.7711 0.5719
vn -0.4528 0.7211 0.5244
vn 0.9213 0.3728 0.1110
vn -0.4026 0.8051 0.4355
vn -0.6039 0.6859 0.4059
vn -0.5727 0.7123 0.4057
vn -0.2750 0.7286 0.6273
vn -0.2905 0.7783 0.5566
vn -0.3193 0.8090 0.4936
vn -0.4919 0.7743 0.3981
vn 0.8826 0.3901 0.2624
vn -0.4251 0.8815 0.2054
vn -0.6281 0.7644 0.1455
vn -0.6070 0.7828 0.1369
vn -0.5352 0.8355 0.1247
vn -0.3841 0.8477 0.3658
vn -0.3316 0.8238 0.4598
vn -0.2988 0.7778 0.5530
vn 0.8512 0.3645 0.3777
vn -0.6195 0.7723 -0.1410
vn -0.4089 0.9125 -0.0099
vn -0.5986 0.7813 -0.1768
vn -0.3678 0.3293 0.8697
vn -0.3256 0.4457 0.8339
vn -0.4593 0.2816 0.8425
vn -0.4388 0.3735 0.8173
vn -0.2665 0.4663 0.8435
vn -0.2692 0.3771 0.8862
vn -0.2977 0.5059 0.8096
vn -0.3790 0.4444 0.8117
vn -0.2656 0.5236 0.8095
vn -0.2003 0.5294 0.8244
vn -0.1774 0.4720 0.8635
vn -0.3147 0.5031 0.8049
vn -0.2780 0.5450 0.7910
vn -0.2652 0.5535 0.7895
vn -0.2118 0.5602 0.8008
vn -0.1251 0.5222 0.8436
vn -0.1551 0.5579 0.8153
vn -0.2289 0.5687 0.7901
vn -0.1907 0.5481 0.8144
vn -0.0875 0.5277 0.8449
vn -0.1510 0.5045 0.8501
vn -0.2150 0.5662 0.7958
vn -0.1967 0.5138 0.8351
vn -0.0590 0.4647 0.8835
vn -0.0989 0.4754 0.8742
vn -0.1971 0.6393 0.7433
vn -0.1142 0.6055 0.7876
vn 0.0120 0.4846 0.8747
vn 0.0130 0.5855 0.8106
vn -0.0435 0.5366 0.8427
vn -0.1799 0.5913 0.7861
vn -0.0243 0.4554 0.8899
vn -0.1192 0.4021 0.9078
vn -0.0587 0.3989 0.9151
vn -0.0438 0.4841 0.8739
vn -0.5242 0.8243 -0.2140
vn -0.4191 0.9008 0.1136
vn -0.3699 0.9069 -0.2017
vn -0.3849 0.8698 0.3087
vn -0.3213 0.8356 0.4456
vn 0.8017 0.3525 0.4828
vn -0.6123 0.7178 -0.3315
vn -0.5884 0.6963 -0.4111
vn -0.4041 0.9013 -0.1559
vn -0.5121 0.7313 -0.4504
vn -0.3111 0.8639 -0.3961
vn -0.4333 0.9008 0.0275
vn -0.4220 0.8661 -0.2680
vn -0.3658 0.8092 -0.4597
vn -0.3786 0.8894 0.2562
vn -0.4339 0.9000 -0.0426
vn 0.7052 0.3197 0.6329
vn -0.5230 0.6133 -0.5918
vn -0.5313 0.6348 -0.5611
vn -0.4790 0.6656 -0.5723
vn -0.3609 0.8575 -0.3667
vn -0.4244 0.8395 -0.3393
vn -0.3819 0.6198 -0.6856
vn -0.4245 0.5693 -0.7041
vn -0.4417 0.5615 -0.6997
vn -0.3101 0.8102 -0.4974
vn 0.5775 0.2875 0.7641
vn -0.3433 0.8652 -0.3655
vn -0.2911 0.5616 -0.7745
vn -0.3447 0.5196 -0.7818
vn -0.3740 0.5044 -0.7783
vn -0.2739 0.7646 -0.5834
vn -0.2471 0.4666 -0.8492
vn -0.2707 0.4528 -0.8495
vn 0.4619 0.2688 0.8452
vn -0.2106 0.7310 -0.6490
vn -0.1900 0.3904 -0.9008
vn -0.2108 0.5093 -0.8344
vn -0.1560 0.4294 -0.8895
vn 0.3278 0.2627 0.9075
vn -0.1493 0.7046 -0.6938
vn -0.0832 0.6856 -0.7232
vn -0.1166 0.3494 -0.9297
vn 0.2366 0.2783 0.9309
vn -0.1325 0.4794 -0.8675
vn -0.0976 0.3988 -0.9118
vn 0.0005 0.3426 -0.9395
vn 0.0000 0.7046 -0.7096
vn 0.1315 0.2910 0.9476
vn -0.0762 0.4613 -0.8840
vn -0.0022 0.3864 -0.9223
vn 0.0010 0.2840 0.9588
vn 0.0832 0.6856 -0.7232
vn -0.1301 0.2854 0.9495
vn 0.1164 0.3492 -0.9298
vn 0.0956 0.4041 -0.9097
vn 0.0009 0.4519 -0.8921
vn -0.0005 0.5665 -0.8241
vn 0.0763 0.4649 -0.8821
vn 0.1533 0.4384 -0.8856
vn 0.1900 0.3904 -0.9008
vn -0.2359 0.2694 0.9337
vn 0.1493 0.7045 -0.6938
vn 0.0538 0.5742 -0.8169
vn 0.0986 0.5913 -0.8004
vn 0.1331 0.4851 -0.8643
vn 0.2410 0.4803 -0.8434
vn 0.2106 0.7310 -0.6490
vn 0.2705 0.4529 -0.8496
vn -0.3279 0.2496 0.9111
vn 0.0923 0.5386 -0.8375
vn 0.1221 0.5708 -0.8120
vn 0.1507 0.6171 -0.7723
vn 0.2090 0.5201 -0.8282
vn 0.3347 0.5390 -0.7729
vn 0.3746 0.5035 -0.7785
vn 0.2739 0.7642 -0.5840
vn -0.4629 0.2514 0.8500
vn 0.2806 0.5792 -0.7653
vn 0.1960 0.6607 -0.7246
vn 0.4025 0.6001 -0.6913
vn 0.4423 0.5629 -0.6982
vn 0.3123 0.8092 -0.4977
vn -0.5806 0.2659 0.7695
vn 0.3574 0.6459 -0.6747
vn 0.2530 0.7325 -0.6320
vn 0.4908 0.6603 -0.5685
vn 0.5303 0.6416 -0.5542
vn 0.3664 0.8558 -0.3652
vn -0.7120 0.2928 0.6383
vn 0.4502 0.7036 -0.5498
vn 0.4185 0.8956 -0.1509
vn 0.6139 0.7248 -0.3128
vn 0.5522 0.7479 -0.3683
vn 0.2996 0.8077 -0.5079
vn 0.4861 0.7719 -0.4097
vn -0.8131 0.3245 0.4832
vn 0.4208 0.9071 -0.0094
vn 0.6102 0.7806 -0.1355
vn 0.5391 0.8268 -0.1608
vn -0.8651 0.3304 0.3774
vn 0.4080 0.8946 0.1823
vn 0.5928 0.7969 0.1162
vn -0.8985 0.3545 0.2591
vn 0.3624 0.8292 0.4256
vn 0.5571 0.7280 0.3994
vn -0.9356 0.3384 0.1010
vn 0.3588 0.7715 0.5254
vn -0.9540 0.2993 -0.0155
vn 0.3728 0.7148 0.5917
vn -0.9508 0.2686 -0.1541
vn 0.3617 0.6449 0.6732
vn -0.9204 0.2269 -0.3184
vn -0.3788 0.9213 -0.0878
vn -0.3573 0.9157 0.1837
vn -0.3468 0.9290 0.1287
vn -0.2805 0.8952 0.3462
vn -0.2970 0.8631 0.4084
vn -0.2427 0.8230 0.5135
vn -0.2519 0.7999 0.5447
vn -0.2242 0.7591 0.6112
vn -0.2352 0.7459 0.6232
vn -0.2235 0.6785 0.6998
vn -0.2346 0.6922 0.6825
vn -0.2526 0.6182 0.7444
vn -0.2541 0.6228 0.7400
vn -0.2695 0.5573 0.7854
vn -0.2630 0.5807 0.7705
vn -0.1267 0.1136 0.9854
vn 0.0010 0.2839 0.9588
vn -0.0011 0.1072 0.9942
vn -0.1301 0.2853 0.9496
vn -0.2329 0.1268 0.9642
vn -0.2359 0.2693 0.9337
vn -0.3279 0.2495 0.9112
vn -0.3393 0.1304 0.9316
vn -0.4841 0.1377 0.8641
vn -0.5806 0.2659 0.7696
vn -0.6222 0.1511 0.7682
vn -0.7120 0.2928 0.6382
vn -0.7553 0.1688 0.6333
vn -0.8585 0.1873 0.4774
vn -0.8651 0.3305 0.3774
vn -0.9083 0.2079 0.3629
vn -0.8985 0.3545 0.2590
vn -0.9544 0.2235 0.1978
vn -0.9794 0.2015 0.0094
vn -0.9806 0.1412 -0.1358
vn -0.9519 0.0895 -0.2929
vn -0.9204 0.2269 -0.3183
vn -0.8975 0.0572 -0.4373
vn -0.0754 0.2637 0.9616
vn 0.0000 0.4079 0.9130
vn -0.0000 0.2713 0.9625
vn -0.0000 0.5732 0.8194
vn 0.0754 0.2637 0.9617
vn 0.0587 0.3990 0.9151
vn 0.0261 0.5762 0.8169
vn 0.1671 0.2670 0.9491
vn 0.1192 0.4021 0.9078
vn -0.3779 0.9232 -0.0700
vn -0.3357 0.8710 -0.3586
vn -0.0913 0.1802 -0.9794
vn 0.0724 0.5578 0.8268
vn 0.3103 0.3118 0.8980
vn 0.2558 0.4257 0.8680
vn -0.2810 0.7635 -0.5815
vn -0.2905 0.1219 -0.9491
vn 0.1900 0.5518 0.8121
vn 0.4417 0.3790 0.8132
vn 0.3687 0.4761 0.7984
vn -0.5699 0.1322 -0.8110
vn 0.3166 0.5595 0.7660
vn 0.1798 0.5996 0.7798
vn 0.5043 0.4399 0.7431
vn 0.4285 0.5074 0.7476
vn 0.2532 0.6460 0.7202
vn 0.3452 0.5883 0.7313
vn -0.7317 0.1488 -0.6652
vn 0.3575 0.5884 0.7252
vn 0.5366 0.5087 0.6733
vn 0.4476 0.5723 0.6871
vn 0.1904 0.6454 0.7397
vn 0.1123 0.6109 0.7837
vn 0.0446 0.5371 0.8423
vn 0.1938 0.6942 0.6932
vn 0.2345 0.7016 0.6728
vn 0.2879 0.6475 0.7056
vn 0.3765 0.6177 0.6905
vn -0.8634 0.1943 -0.4656
vn 0.5533 0.5880 0.5900
vn 0.4478 0.6601 0.6031
vn 0.2369 0.6970 0.6768
vn 0.2192 0.7368 0.6396
vn 0.2434 0.6878 0.6839
vn 0.3093 0.6514 0.6929
vn 0.3696 0.7040 0.6064
vn 0.5479 0.6525 0.5235
vn 0.4549 0.7110 0.5362
vn 0.2571 0.6878 0.6789
vn 0.2381 0.7273 0.6437
vn 0.2539 0.7070 0.6601
vn 0.2869 0.6847 0.6700
vn 0.3113 0.7329 0.6050
vn 0.3831 0.7594 0.5259
vn 0.4856 0.7744 0.4055
vn 0.2815 0.7218 0.6322
vn 0.3349 0.7348 0.5898
vn 0.3439 0.7973 0.4960
vn 0.2367 0.6886 0.6854
vn 0.2359 0.7459 0.6228
vn 0.4404 0.8106 0.3860
vn 0.3117 0.7579 0.5731
vn 0.3745 0.7968 0.4741
vn 0.3990 0.8522 0.3384
vn 0.4825 0.8722 0.0806
vn 0.5224 0.8461 0.1054
vn 0.2567 0.7975 0.5460
vn 0.3551 0.8143 0.4591
vn 0.4123 0.8627 0.2930
vn 0.4153 0.9077 0.0597
vn 0.2235 0.6792 0.6991
vn 0.2241 0.7594 0.6108
vn 0.3621 0.9074 -0.2135
vn 0.4809 0.8530 -0.2029
vn 0.2383 0.8237 0.5145
vn 0.3122 0.8557 0.4126
vn 0.4068 0.8754 0.2610
vn 0.4390 0.8976 -0.0413
vn 0.4333 0.9012 0.0075
vn 0.4096 0.8710 -0.2712
vn 0.3565 0.8081 -0.4690
vn 0.3183 0.8628 -0.3928
vn 0.3752 0.9048 0.2016
vn 0.2826 0.8936 0.3487
vn 0.4161 0.8458 -0.3340
vn 0.3648 0.7517 -0.5495
vn 0.2947 0.7478 -0.5949
vn 0.3570 0.8672 -0.3471
vn 0.3991 0.9139 -0.0744
vn 0.3456 0.9293 0.1303
vn 0.3002 0.7523 -0.5865
vn 0.3083 0.6682 -0.6771
vn 0.2166 0.6857 -0.6949
vn 0.3668 0.9271 -0.0775
vn 0.2979 0.7481 -0.5929
vn 0.3457 0.8747 -0.3398
vn 0.2457 0.6589 -0.7109
vn 0.2565 0.6258 -0.7366
vn 0.2310 0.6073 -0.7601
vn 0.2248 0.5574 -0.7992
vn 0.1536 0.6247 -0.7656
vn 0.2210 0.5402 -0.8120
vn 0.1307 0.5470 -0.8269
vn 0.2491 0.5293 -0.8111
vn 0.1891 0.5023 -0.8438
vn 0.0929 0.5011 -0.8604
vn 0.0938 0.4828 -0.8707
vn -0.8634 0.1942 -0.4656
vn -0.8197 0.0253 -0.5722
vn -0.7317 0.1487 -0.6652
vn -0.6890 -0.0078 -0.7247
vn -0.5699 0.1321 -0.8111
vn -0.4487 -0.0614 -0.8916
vn -0.2905 0.1220 -0.9491
vn -0.2091 -0.0994 -0.9728
vn -0.0913 0.1803 -0.9794
vn -0.0583 -0.0864 -0.9946
vn 0.0093 0.2224 -0.9749
vn 0.0086 -0.0541 -0.9985
vn 0.0797 -0.0644 -0.9947
vn 0.2145 -0.0683 -0.9743
vn 0.2906 0.1470 -0.9455
vn 0.4405 -0.0328 -0.8971
vn 0.5825 0.1604 -0.7968
vn 0.7012 0.0271 -0.7124
vn 0.7515 0.1816 -0.6343
vn 0.8300 0.0638 -0.5541
vn 0.8706 0.2268 -0.4365
vn 0.9042 0.1010 -0.4150
vn 0.9147 0.2662 -0.3040
vn 0.9533 0.1385 -0.2684
vn 0.9407 0.3100 -0.1374
vn 0.9762 0.1860 -0.1111
vn 0.9699 0.2424 0.0225
vn 0.9427 0.2661 0.2014
vn 0.8958 0.2497 0.3676
vn 0.8511 0.3646 0.3777
vn 0.8468 0.2243 0.4823
vn 0.8016 0.3525 0.4828
vn 0.7479 0.1993 0.6332
vn 0.7052 0.3196 0.6329
vn 0.6171 0.1756 0.7670
vn 0.5775 0.2876 0.7640
vn 0.4815 0.1566 0.8623
vn 0.3370 0.1443 0.9304
vn 0.3278 0.2626 0.9075
vn 0.2366 0.2784 0.9309
vn 0.2315 0.1363 0.9632
vn 0.1255 0.1186 0.9850
vn 0.0010 0.2839 0.9589
vn -0.0010 0.1072 0.9942
vn 0.2117 0.4161 -0.8843
vn 0.2103 0.4036 -0.8904
vn 0.0532 0.4534 -0.8897
vn 0.1509 0.3974 -0.9052
vn 0.0422 0.4481 -0.8930
vn 0.0903 0.4406 -0.8931
vn 0.1981 0.2645 -0.9438
vn 0.2148 0.2777 -0.9363
vn 0.0284 0.3730 -0.9274
vn 0.0018 0.4071 -0.9134
vn 0.1343 0.2831 -0.9496
vn 0.0576 0.4062 -0.9120
vn 0.0471 0.5254 -0.8496
vn 0.0496 0.4236 -0.9045
vn 0.2236 0.1914 -0.9557
vn 0.2185 0.1685 -0.9612
vn 0.0217 0.2826 -0.9590
vn -0.0316 0.3451 -0.9380
vn 0.0157 0.3635 -0.9315
vn 0.1255 0.2029 -0.9711
vn 0.0379 0.3713 -0.9277
vn 0.2688 0.1072 -0.9572
vn 0.2302 0.1163 -0.9662
vn 0.0163 0.1979 -0.9801
vn -0.0492 0.2767 -0.9597
vn -0.0238 0.3094 -0.9506
vn 0.0228 0.3383 -0.9408
vn 0.1053 0.1083 -0.9885
vn -0.0038 0.0938 -0.9956
vn -0.0553 0.1879 -0.9806
vn -0.0541 0.2580 -0.9646
vn 0.0076 0.2793 -0.9602
vn -0.0619 0.0707 -0.9956
vn -0.0641 0.1802 -0.9815
vn -0.0168 0.2337 -0.9722
vn -0.0563 0.0756 -0.9955
vn -0.0278 0.1853 -0.9823
vn -0.0006 0.1887 -0.9820
vn -0.0078 0.2261 -0.9741
vn -0.0229 0.0718 -0.9972
vn -0.0004 0.0736 -0.9973
vn -0.2197 0.1658 -0.9614
vn -0.2239 0.1914 -0.9556
vn -0.2736 0.1148 -0.9550
vn -0.2437 0.1192 -0.9625
vn -0.1029 0.1069 -0.9889
vn -0.1232 0.2033 -0.9713
vn 0.0039 0.0928 -0.9957
vn -0.0164 0.1978 -0.9801
vn -0.1235 0.2791 -0.9523
vn -0.0199 0.2838 -0.9587
vn 0.0708 0.0653 -0.9953
vn 0.0542 0.1861 -0.9810
vn 0.0500 0.2775 -0.9594
vn 0.0647 0.1806 -0.9814
vn 0.0566 0.0745 -0.9956
vn 0.0610 0.2668 -0.9618
vn -0.0198 0.3747 -0.9269
vn 0.0427 0.3567 -0.9332
vn 0.0339 0.3256 -0.9449
vn 0.0281 0.1859 -0.9822
vn 0.0240 0.0709 -0.9972
vn 0.0159 0.2472 -0.9688
vn -0.0172 0.2869 -0.9578
vn -0.0162 0.3613 -0.9323
vn 0.0150 0.4068 -0.9134
vn -0.0416 0.3301 -0.9430
vn -0.0144 0.2689 -0.9631
vn -0.0097 0.3296 -0.9441
vn -0.0616 0.3888 -0.9193
vn -0.0508 0.3633 -0.9303
vn -0.0044 0.3582 -0.9336
vn -0.0546 0.4184 -0.9066
vn -0.0030 0.4184 -0.9083
vn -0.0316 0.4367 -0.8991
vn -0.0955 0.4382 -0.8938
vn -0.0010 0.5204 -0.8539
vn -0.0519 0.5240 -0.8502
vn -0.1014 0.5350 -0.8387
vn -0.0899 0.4849 -0.8699
vn -0.0561 0.5719 -0.8184
vn -0.1238 0.5665 -0.8147
vn -0.1038 0.5834 -0.8055
vn -0.1577 0.6051 -0.7804
vn -0.1205 0.5495 -0.8268
vn -0.1479 0.6251 -0.7664
vn -0.0806 0.4965 -0.8643
vn -0.2250 0.6091 -0.7605
vn -0.2172 0.5538 -0.8039
vn -0.2115 0.6922 -0.6900
vn -0.2044 0.6523 -0.7299
vn -0.1695 0.5079 -0.8446
vn -0.0398 0.4508 -0.8917
vn -0.3190 0.6716 -0.6687
vn -0.2569 0.6331 -0.7302
vn -0.1991 0.5591 -0.8049
vn -0.2933 0.7542 -0.5874
vn -0.2632 0.7329 -0.6274
vn -0.1249 0.3962 -0.9096
vn -0.1798 0.4158 -0.8915
vn -0.3049 0.7549 -0.5806
vn -0.3850 0.7500 -0.5379
vn -0.2489 0.6670 -0.7022
vn -0.2443 0.5772 -0.7792
vn -0.2069 0.3869 -0.8986
vn -0.2970 0.8108 -0.5043
vn -0.1993 0.2581 -0.9453
vn -0.1917 0.2274 -0.9548
vn 0.2515 0.6164 0.7462
vn 0.2561 0.6233 0.7389
vn 0.2677 0.5597 0.7843
vn 0.2669 0.5811 0.7688
vn 0.3214 0.5021 0.8029
vn 0.2813 0.6188 0.7335
vn 0.2802 0.5423 0.7921
vn 0.2816 0.5752 0.7680
vn 0.3783 0.4433 0.8126
vn 0.2482 0.6116 0.7512
vn 0.2734 0.5424 0.7944
vn 0.2957 0.5066 0.8099
vn 0.2281 0.5694 0.7898
vn 0.4358 0.3715 0.8198
vn 0.2005 0.5779 0.7911
vn 0.2109 0.5499 0.8082
vn 0.2655 0.5196 0.8121
vn 0.3230 0.4467 0.8343
vn 0.1742 0.5515 0.8158
vn 0.4532 0.2803 0.8462
vn 0.1912 0.5167 0.8345
vn 0.2010 0.5249 0.8271
vn 0.1470 0.5556 0.8184
vn 0.2620 0.4693 0.8433
vn 0.3669 0.3285 0.8703
vn 0.1481 0.5039 0.8510
vn 0.1000 0.4790 0.8721
vn 0.1773 0.4752 0.8618
vn 0.1244 0.5196 0.8453
vn 0.0880 0.5295 0.8437
vn 0.2651 0.3763 0.8877
vn 0.0616 0.4657 0.8828
vn 0.1595 0.4000 0.9025
vn 0.0937 0.4689 0.8783
vn 0.0549 0.5049 0.8614
vn 0.0239 0.4941 0.8691
vn 0.0760 0.4244 0.9023
vn 0.0256 0.4559 0.8897
vn -0.0032 0.4886 0.8725
vn 0.0241 0.4557 0.8898
vn -0.0038 0.4702 0.8826
vn -0.0101 0.4254 0.9050
vn -0.0280 0.4394 0.8978
vn -0.0389 0.4680 0.8829
vn -0.0002 0.4478 0.8941
vn -0.0016 0.4561 0.8899
vn -0.0642 0.4171 0.9066
vn -0.0559 0.4244 0.9037
vn -0.0110 0.4196 0.9077
vn -0.0069 0.4553 0.8903
vn 0.0049 0.4699 0.8827
vn 0.0400 0.4625 0.8857
vn -0.0774 0.4185 0.9049
vn -0.0047 0.4057 0.9140
vn 0.0566 0.4223 0.9047
vn 0.0750 0.4206 0.9042
vn 0.0632 0.4195 0.9056
vn 0.0360 0.4381 0.8982
vn 0.0063 0.4290 0.9033
vn -0.0249 0.4540 0.8907
vn -0.0758 0.4273 0.9009
vn -0.0919 0.4680 0.8789
vn -0.1604 0.3947 0.9047
vn 0.0074 0.4871 0.8733
vn -0.0529 0.5046 0.8617
vn -0.0225 0.4951 0.8686
vn -0.0008 0.4803 0.8771
vn 0.0427 0.4860 0.8729
vn -0.0122 0.4841 0.8749
vn -0.0132 0.5864 0.8099
s 1
f 1/1/1 2/2/2 3/3/3
f 1/1/1 4/4/4 2/2/2
f 5/5/5 4/4/4 1/1/1
f 4/4/4 6/6/6 2/2/2
f 6/6/6 4/4/4 7/7/7
f 5/5/5 8/8/8 4/4/4
f 7/7/7 4/4/4 8/8/8
f 9/9/9 8/8/8 5/5/5
f 10/10/10 6/6/6 7/7/7
f 8/8/8 11/11/11 7/7/7
f 7/7/7 12/12/12 10/10/10
f 11/11/11 12/12/12 7/7/7
f 13/13/13 11/11/11 8/8/8
f 9/9/9 13/13/13 8/8/8
f 14/14/14 13/13/13 9/9/9
f 12/12/12 15/15/15 10/10/10
f 13/13/13 16/16/16 11/11/11
f 11/11/11 17/17/17 12/12/12
f 16/16/16 17/17/17 11/11/11
f 15/15/15 12/12/12 18/18/18
f 18/18/18 12/12/12 17/17/17
f 19/19/19 16/16/16 13/13/13
f 14/14/14 19/19/19 13/13/13
f 20/20/20 19/19/19 14/14/14
f 21/21/21 16/16/16 19/19/19
f 22/22/22 16/16/16 21/21/21
f 22/22/22 17/17/17 16/16/16
f 17/17/17 23/23/23 18/18/18
f 23/23/23 17/17/17 22/22/22
f 20/20/20 24/24/24 19/19/19
f 19/19/19 24/24/24 21/21/21
f 18/18/18 25/25/25 15/15/15
f 25/25/25 26/26/26 15/15/15
f 27/27/27 25/25/25 18/18/18
f 18/18/18 28/28/28 27/27/27
f 18/18/18 23/23/23 28/28/28
f 29/29/29 22/22/22 21/21/21
f 30/30/30 21/21/21 24/24/24
f 29/29/29 21/21/21 30/30/30
f 31/31/31 22/22/22 29/29/29
f 31/31/31 23/23/23 22/22/22
f 23/23/23 32/32/32 28/28/28
f 32/32/32 23/23/23 31/31/31
f 25/25/25 33/33/33 26/26/26
f 34/34/34 33/33/33 25/25/25
f 25/25/25 27/27/27 34/34/34
f 33/33/33 35/35/35 26/26/26
f 34/34/34 27/27/27 36/36/36
f 27/27/27 28/28/28 37/37/37
f 37/37/37 36/36/36 27/27/27
f 38/38/38 37/37/37 28/28/28
f 28/28/28 32/32/32 38/38/38
f 39/39/39 31/31/31 29/29/29
f 40/40/40 29/29/29 30/30/30
f 39/39/39 29/29/29 40/40/40
f 41/41/41 31/31/31 39/39/39
f 41/41/41 32/32/32 31/31/31
f 42/42/42 38/38/38 32/32/32
f 42/42/42 32/32/32 41/41/41
f 33/33/33 43/43/43 35/35/35
f 44/44/44 43/43/43 33/33/33
f 34/34/34 44/44/44 33/33/33
f 45/45/45 44/44/44 34/34/34
f 36/36/36 45/45/45 34/34/34
f 43/43/43 46/46/46 35/35/35
f 47/47/47 45/45/45 36/36/36
f 48/48/48 36/36/36 37/37/37
f 48/48/48 47/47/47 36/36/36
f 37/37/37 49/49/49 48/48/48
f 49/49/49 37/37/37 38/38/38
f 38/38/38 50/50/50 49/49/49
f 50/50/50 38/38/38 42/42/42
f 51/51/51 39/39/39 40/40/40
f 52/52/52 39/39/39 51/51/51
f 52/52/52 41/41/41 39/39/39
f 53/53/53 41/41/41 52/52/52
f 53/53/53 42/42/42 41/41/41
f 54/54/54 50/50/50 42/42/42
f 54/54/54 42/42/42 53/53/53
f 55/55/55 47/47/47 48/48/48
f 55/55/55 45/45/45 47/47/47
f 48/48/48 56/56/56 55/55/55
f 48/48/48 49/49/49 56/56/56
f 49/49/49 57/57/57 56/56/56
f 49/49/49 50/50/50 57/57/57
f 50/50/50 58/58/58 57/57/57
f 58/58/58 50/50/50 54/54/54
f 59/59/59 52/52/52 51/51/51
f 60/60/60 52/52/52 59/59/59
f 52/52/52 61/61/61 53/53/53
f 60/60/60 61/61/61 52/52/52
f 61/61/61 62/62/62 53/53/53
f 53/53/53 62/62/62 54/54/54
f 58/58/58 54/54/54 63/63/63
f 63/63/63 54/54/54 62/62/62
f 57/57/57 58/58/58 64/64/64
f 63/63/63 64/64/64 58/58/58
f 64/64/64 65/65/65 57/57/57
f 56/56/56 57/57/57 65/65/65
f 55/55/55 56/56/56 66/66/66
f 56/56/56 65/65/65 66/66/66
f 59/59/59 67/67/67 60/60/60
f 60/60/60 68/68/68 61/61/61
f 69/69/69 68/68/68 60/60/60
f 60/60/60 67/67/67 69/69/69
f 68/68/68 70/70/70 61/61/61
f 61/61/61 70/70/70 62/62/62
f 72/71/71 74/72/72 71/73/73
f 71/73/73 74/72/72 73/74/74
f 72/71/71 75/75/75 74/72/72
f 76/76/76 75/75/75 72/71/71
f 74/72/72 78/77/77 73/74/74
f 73/74/74 78/77/77 77/78/78
f 78/77/77 74/72/72 79/79/79
f 79/79/79 74/72/72 75/75/75
f 79/79/79 75/75/75 80/80/80
f 75/75/75 76/76/76 81/81/81
f 80/80/80 75/75/75 81/81/81
f 82/82/82 77/78/78 83/83/83
f 83/83/83 77/78/78 78/77/77
f 79/79/79 84/84/84 78/77/77
f 78/77/77 84/84/84 83/83/83
f 80/80/80 85/85/85 79/79/79
f 79/79/79 85/85/85 84/84/84
f 81/81/81 86/86/86 80/80/80
f 87/87/87 80/80/80 86/86/86
f 85/85/85 80/80/80 87/87/87
f 84/84/84 46/46/46 83/83/83
f 84/84/84 89/88/88 46/46/46
f 85/85/85 89/88/88 84/84/84
f 87/87/87 90/89/89 85/85/85
f 85/85/85 90/89/89 89/88/88
f 86/86/86 91/90/90 87/87/87
f 87/87/87 92/91/91 90/89/89
f 91/90/90 92/91/91 87/87/87
f 35/35/35 46/46/46 89/88/88
f 89/88/88 94/92/92 35/35/35
f 90/89/89 94/92/92 89/88/88
f 94/92/92 90/89/89 95/93/93
f 95/93/93 90/89/89 92/91/91
f 91/90/90 96/94/94 92/91/91
f 92/91/91 97/95/95 95/93/93
f 96/94/94 97/95/95 92/91/91
f 26/26/26 35/35/35 94/92/92
f 98/96/96 94/92/92 95/93/93
f 26/26/26 94/92/92 98/96/96
f 98/96/96 95/93/93 99/97/97
f 99/97/97 95/93/93 97/95/95
f 96/94/94 100/98/98 97/95/95
f 97/95/95 101/99/99 99/97/97
f 100/98/98 101/99/99 97/95/95
f 101/99/99 102/100/100 99/97/97
f 100/98/98 102/100/100 101/99/99
f 103/101/101 98/96/96 99/97/97
f 99/97/97 102/100/100 103/101/101
f 15/15/15 98/96/96 103/101/101
f 15/15/15 26/26/26 98/96/96
f 104/102/102 102/100/100 100/98/98
f 104/102/102 100/98/98 96/94/94
f 102/100/100 105/103/103 103/101/101
f 10/10/10 15/15/15 103/101/101
f 103/101/101 105/103/103 10/10/10
f 102/100/100 106/104/104 105/103/103
f 107/105/105 106/104/104 102/100/100
f 102/100/100 104/102/102 107/105/105
f 70/70/70 108/106/106 62/62/62
f 62/62/62 108/106/106 63/63/63
f 109/107/107 64/64/64 63/63/63
f 110/108/108 63/63/63 108/106/106
f 109/107/107 63/63/63 110/108/108
f 111/109/109 65/65/65 64/64/64
f 64/64/64 109/107/107 111/109/109
f 111/109/109 112/110/110 65/65/65
f 66/66/66 65/65/65 112/110/110
f 67/67/67 113/111/111 69/69/69
f 68/68/68 69/69/69 114/112/112
f 115/113/113 68/68/68 114/112/112
f 70/70/70 68/68/68 115/113/113
f 114/112/112 69/69/69 116/114/114
f 69/69/69 113/111/111 116/114/114
f 115/113/113 117/115/115 70/70/70
f 70/70/70 117/115/115 108/106/106
f 110/108/108 108/106/106 118/116/116
f 118/116/116 108/106/106 117/115/115
f 111/109/109 109/107/107 119/117/117
f 120/118/118 109/107/107 110/108/108
f 119/117/117 109/107/107 120/118/118
f 120/118/118 110/108/108 121/119/119
f 121/119/119 110/108/108 118/116/116
f 122/120/120 112/110/110 111/109/109
f 111/109/109 123/121/121 122/120/120
f 119/117/117 123/121/121 111/109/109
f 113/111/111 124/122/122 116/114/114
f 114/112/112 125/123/123 115/113/113
f 126/124/124 125/123/123 114/112/112
f 116/114/114 126/124/124 114/112/112
f 125/123/123 127/125/125 115/113/113
f 115/113/113 127/125/125 117/115/115
f 128/126/126 126/124/124 116/114/114
f 116/114/114 124/122/122 128/126/126
f 123/121/121 119/117/117 129/127/127
f 129/127/127 119/117/117 120/118/118
f 120/118/118 121/119/119 129/127/127
f 127/125/125 125/123/123 130/128/128
f 125/123/123 126/124/124 131/129/129
f 130/128/128 125/123/123 131/129/129
f 126/124/124 128/126/126 132/130/130
f 131/129/129 126/124/124 132/130/130
f 132/130/130 128/126/126 133/131/131
f 124/122/122 133/131/131 128/126/126
f 134/132/132 133/131/131 124/122/122
f 135/133/133 123/121/121 129/127/127
f 130/128/128 131/129/129 136/134/134
f 136/134/134 131/129/129 137/135/135
f 131/129/129 132/130/130 137/135/135
f 132/130/130 133/131/131 138/136/136
f 137/135/135 132/130/130 138/136/136
f 134/132/132 139/137/137 133/131/131
f 138/136/136 133/131/131 139/137/137
f 140/138/138 136/134/134 137/135/135
f 138/136/136 140/138/138 137/135/135
f 139/137/137 141/139/139 138/136/136
f 141/139/139 140/138/138 138/136/136
f 142/140/140 139/137/137 134/132/132
f 143/141/141 141/139/139 139/137/137
f 142/140/140 143/141/141 139/137/137
f 143/141/141 144/142/142 141/139/139
f 144/142/142 140/138/138 141/139/139
f 145/143/143 136/134/134 140/138/138
f 146/144/144 145/143/143 140/138/138
f 146/144/144 140/138/138 144/142/142
f 147/145/145 143/141/141 142/140/140
f 148/146/146 144/142/142 143/141/141
f 147/145/145 148/146/146 143/141/141
f 148/146/146 149/147/147 144/142/142
f 144/142/142 150/148/148 146/144/144
f 144/142/142 149/147/147 150/148/148
f 151/149/149 149/147/147 148/146/146
f 151/149/149 148/146/146 147/145/145
f 152/150/150 145/143/143 146/144/144
f 153/151/151 152/150/150 146/144/144
f 146/144/144 150/148/148 153/151/151
f 150/148/148 149/147/147 154/152/152
f 150/148/148 154/152/152 153/151/151
f 154/152/152 149/147/147 155/153/153
f 156/154/154 149/147/147 151/149/149
f 156/154/154 155/153/153 149/147/147
f 157/155/155 152/150/150 153/151/151
f 158/156/156 157/155/155 153/151/151
f 153/151/151 154/152/152 158/156/156
f 159/157/157 155/153/153 156/154/154
f 160/158/158 154/152/152 155/153/153
f 155/153/153 161/159/159 160/158/158
f 159/157/157 161/159/159 155/153/153
f 162/160/160 154/152/152 160/158/158
f 163/161/161 154/152/152 162/160/160
f 158/156/156 154/152/152 163/161/161
f 158/156/156 163/161/161 164/162/162
f 164/162/162 157/155/155 158/156/156
f 165/163/163 157/155/155 164/162/162
f 164/162/162 166/164/164 165/163/163
f 164/162/162 163/161/161 166/164/164
f 163/161/161 167/165/165 166/164/164
f 163/161/161 162/160/160 167/165/165
f 162/160/160 160/158/158 168/166/166
f 167/165/165 162/160/160 168/166/166
f 169/167/167 160/158/158 161/159/159
f 170/168/168 160/158/158 169/167/167
f 168/166/166 160/158/158 170/168/168
f 165/163/163 166/164/164 171/169/169
f 166/164/164 172/170/170 171/169/169
f 173/171/171 172/170/170 166/164/164
f 166/164/164 167/165/165 173/171/171
f 167/165/165 174/172/172 173/171/171
f 168/166/166 174/172/172 167/165/165
f 175/173/173 168/166/166 170/168/168
f 176/174/174 168/166/166 175/173/173
f 176/174/174 174/172/172 168/166/166
f 175/173/173 170/168/168 177/175/175
f 177/175/175 170/168/168 169/167/167
f 172/170/170 178/176/176 171/169/169
f 172/170/170 179/177/177 178/176/176
f 180/178/178 179/177/177 172/170/170
f 173/171/171 180/178/178 172/170/170
f 181/179/179 180/178/178 173/171/171
f 173/171/171 174/172/172 181/179/179
f 174/172/172 182/180/180 181/179/179
f 174/172/172 183/181/181 182/180/180
f 176/174/174 183/181/181 174/172/172
f 183/181/181 176/174/174 184/182/182
f 184/182/182 176/174/174 175/173/173
f 184/182/182 175/173/173 185/183/183
f 185/183/183 175/173/173 177/175/175
f 186/184/184 180/178/178 181/179/179
f 181/179/179 182/180/180 186/184/184
f 187/185/185 180/178/178 186/184/184
f 182/180/180 188/186/186 186/184/184
f 189/187/187 182/180/180 183/181/181
f 188/186/186 182/180/180 189/187/187
f 189/187/187 183/181/181 190/188/188
f 190/188/188 183/181/181 184/182/182
f 190/188/188 184/182/182 191/189/189
f 191/189/189 184/182/182 185/183/183
f 192/190/190 187/185/185 186/184/184
f 186/184/184 188/186/186 192/190/190
f 193/191/191 187/185/185 192/190/190
f 188/186/186 194/192/192 192/190/190
f 195/193/193 188/186/186 189/187/187
f 194/192/192 188/186/186 195/193/193
f 195/193/193 189/187/187 196/194/194
f 196/194/194 189/187/187 190/188/188
f 196/194/194 190/188/188 197/195/195
f 197/195/195 190/188/188 191/189/189
f 192/190/190 198/196/196 193/191/191
f 192/190/190 194/192/192 198/196/196
f 196/194/194 199/197/197 195/193/193
f 197/195/195 199/197/197 196/194/194
f 195/193/193 200/198/198 194/192/192
f 195/193/193 199/197/197 200/198/198
f 201/199/199 198/196/196 194/192/192
f 194/192/192 200/198/198 201/199/199
f 193/191/191 198/196/196 202/200/200
f 198/196/196 203/201/201 202/200/200
f 203/201/201 198/196/196 201/199/199
f 204/202/202 199/197/197 197/195/195
f 199/197/197 205/203/203 200/198/198
f 204/202/202 205/203/203 199/197/197
f 200/198/198 205/203/203 206/204/204
f 200/198/198 206/204/204 201/199/199
f 207/205/205 203/201/201 201/199/199
f 201/199/199 206/204/204 207/205/205
f 208/206/206 205/203/203 204/202/202
f 205/203/203 209/207/207 206/204/204
f 208/206/206 209/207/207 205/203/203
f 206/204/204 209/207/207 210/208/208
f 206/204/204 210/208/208 207/205/205
f 211/209/209 209/207/207 208/206/206
f 211/209/209 212/210/210 209/207/207
f 209/207/207 212/210/210 210/208/208
f 210/208/208 212/210/210 213/211/211
f 214/212/212 212/210/210 211/209/209
f 214/212/212 215/213/213 212/210/210
f 212/210/210 215/213/213 213/211/211
f 216/214/214 215/213/213 214/212/212
f 216/214/214 217/215/215 215/213/213
f 218/216/216 217/215/215 216/214/214
f 218/216/216 219/217/217 217/215/215
f 220/218/218 219/217/217 218/216/216
f 221/219/219 123/121/121 135/133/133
f 222/220/220 123/121/121 221/219/219
f 222/220/220 221/219/219 223/221/221
f 122/120/120 123/121/121 222/220/220
f 223/221/221 224/222/222 222/220/220
f 222/220/220 225/223/223 122/120/120
f 222/220/220 224/222/222 225/223/223
f 122/120/120 225/223/223 112/110/110
f 226/224/224 225/223/223 224/222/222
f 227/225/225 225/223/223 226/224/224
f 225/223/223 227/225/225 112/110/110
f 228/226/226 227/225/225 226/224/224
f 112/110/110 227/225/225 66/66/66
f 229/227/227 227/225/225 228/226/226
f 227/225/225 229/227/227 66/66/66
f 230/228/228 229/227/227 228/226/226
f 66/66/66 229/227/227 55/55/55
f 231/229/229 229/227/227 230/228/228
f 229/227/227 45/45/45 55/55/55
f 229/227/227 231/229/229 45/45/45
f 93/230/230 231/229/229 230/228/228
f 232/231/231 231/229/229 93/230/230
f 231/229/229 232/231/231 44/44/44
f 45/45/45 231/229/229 44/44/44
f 88/232/232 232/231/231 93/230/230
f 233/233/233 232/231/231 88/232/232
f 232/231/231 233/233/233 43/43/43
f 44/44/44 232/231/231 43/43/43
f 88/232/232 82/82/82 233/233/233
f 233/233/233 82/82/82 83/83/83
f 43/43/43 233/233/233 46/46/46
f 83/83/83 46/46/46 233/233/233
f 234/234/234 235/235/235 236/236/236
f 237/237/237 235/235/235 234/234/234
f 238/238/238 237/237/237 234/234/234
f 239/239/239 237/237/237 238/238/238
f 238/238/238 240/240/240 239/239/239
f 241/241/241 240/240/240 238/238/238
f 241/241/241 242/242/183 240/240/240
f 243/243/242 242/242/183 241/241/241
f 242/242/183 243/243/242 244/244/243
f 244/244/243 243/243/242 245/245/244
f 245/245/244 246/246/245 244/244/243
f 247/247/246 246/246/245 245/245/244
f 247/247/246 248/248/202 246/246/245
f 249/249/247 248/248/202 247/247/246
f 248/248/202 249/249/247 250/250/248
f 250/250/248 249/249/247 251/251/249
f 250/250/248 251/251/249 252/252/250
f 252/252/250 251/251/249 253/253/251
f 253/253/251 254/254/212 252/252/250
f 255/255/252 254/254/212 253/253/251
f 254/254/212 255/255/252 256/256/214
f 256/256/214 255/255/252 257/257/253
f 257/257/253 258/258/216 256/256/214
f 259/259/254 258/258/216 257/257/253
f 259/259/254 260/260/255 258/258/216
f 261/261/256 260/260/255 259/259/254
f 262/262/257 105/103/103 106/104/104
f 6/6/6 105/103/103 262/262/257
f 105/103/103 6/6/6 10/10/10
f 107/105/105 263/263/258 106/104/104
f 106/104/104 264/264/259 262/262/257
f 263/263/258 264/264/259 106/104/104
f 264/264/259 265/265/260 262/262/257
f 2/2/2 6/6/6 262/262/257
f 262/262/257 265/265/260 2/2/2
f 264/264/259 266/266/261 265/265/260
f 264/264/259 267/267/262 266/266/261
f 263/263/258 267/267/262 264/264/259
f 265/265/260 266/266/261 269/268/263
f 3/3/3 2/2/2 265/265/260
f 269/268/263 3/3/3 265/265/260
f 270/269/264 269/268/263 266/266/261
f 271/270/265 266/266/261 267/267/262
f 270/269/264 266/266/261 271/270/265
f 268/271/266 135/133/133 272/272/267
f 221/219/219 135/133/133 268/271/266
f 223/221/221 221/219/219 268/271/266
f 273/273/268 3/3/3 269/268/263
f 269/268/263 274/274/269 273/273/268
f 274/274/269 269/268/263 270/269/264
f 270/269/264 275/275/270 274/274/269
f 270/269/264 276/276/271 275/275/270
f 271/270/265 276/276/271 270/269/264
f 272/272/267 135/133/133 277/277/272
f 273/273/268 274/274/269 278/278/273
f 274/274/269 275/275/270 279/279/274
f 274/274/269 279/279/274 278/278/273
f 275/275/270 280/280/275 279/279/274
f 281/281/276 275/275/270 276/276/271
f 280/280/275 275/275/270 281/281/276
f 278/278/273 279/279/274 282/282/277
f 279/279/274 280/280/275 283/283/278
f 279/279/274 283/283/278 282/282/277
f 276/276/271 284/284/279 281/281/276
f 276/276/271 271/270/265 284/284/279
f 285/285/280 283/283/278 280/280/275
f 286/286/281 280/280/275 281/281/276
f 285/285/280 280/280/275 286/286/281
f 281/281/276 284/284/279 287/287/282
f 288/288/283 281/281/276 287/287/282
f 286/286/281 281/281/276 288/288/283
f 282/282/277 283/283/278 289/289/284
f 290/290/285 283/283/278 285/285/280
f 283/283/278 290/290/285 289/289/284
f 290/290/285 285/285/280 219/217/217
f 285/285/280 286/286/281 291/291/286
f 219/217/217 285/285/280 291/291/286
f 286/286/281 288/288/283 292/292/287
f 291/291/286 286/286/281 292/292/287
f 284/284/279 293/293/288 287/287/282
f 294/294/289 293/293/288 284/284/279
f 284/284/279 271/270/265 295/295/290
f 284/284/279 295/295/290 294/294/289
f 267/267/262 295/295/290 271/270/265
f 296/296/291 287/287/282 293/293/288
f 297/297/292 287/287/282 296/296/291
f 287/287/282 297/297/292 288/288/283
f 288/288/283 297/297/292 298/298/293
f 288/288/283 298/298/293 299/299/294
f 292/292/287 288/288/283 299/299/294
f 289/289/284 290/290/285 300/300/295
f 300/300/295 290/290/285 220/218/218
f 220/218/218 290/290/285 219/217/217
f 219/217/217 291/291/286 217/215/215
f 291/291/286 292/292/287 301/301/296
f 217/215/215 291/291/286 301/301/296
f 292/292/287 299/299/294 302/302/297
f 301/301/296 292/292/287 302/302/297
f 296/296/291 303/303/298 297/297/292
f 304/304/299 298/298/293 297/297/292
f 297/297/292 303/303/298 304/304/299
f 305/305/300 298/298/293 304/304/299
f 299/299/294 298/298/293 306/306/301
f 298/298/293 305/305/300 306/306/301
f 306/306/301 307/307/302 299/299/294
f 302/302/297 299/299/294 307/307/302
f 217/215/215 301/301/296 215/213/213
f 301/301/296 302/302/297 308/308/303
f 215/213/213 301/301/296 308/308/303
f 307/307/302 309/309/304 302/302/297
f 308/308/303 302/302/297 309/309/304
f 310/310/305 304/304/299 303/303/298
f 311/311/306 304/304/299 310/310/305
f 311/311/306 305/305/300 304/304/299
f 213/211/211 215/213/213 308/308/303
f 308/308/303 309/309/304 213/211/211
f 312/312/307 305/305/300 311/311/306
f 306/306/301 305/305/300 313/313/308
f 312/312/307 313/313/308 305/305/300
f 313/313/308 314/314/309 306/306/301
f 314/314/309 307/307/302 306/306/301
f 314/314/309 315/315/310 307/307/302
f 315/315/310 309/309/304 307/307/302
f 315/315/310 316/316/311 309/309/304
f 213/211/211 309/309/304 316/316/311
f 317/317/312 313/313/308 312/312/307
f 312/312/307 311/311/306 317/317/312
f 317/317/312 318/318/313 313/313/308
f 318/318/313 314/314/309 313/313/308
f 318/318/313 319/319/314 314/314/309
f 319/319/314 315/315/310 314/314/309
f 310/310/305 320/320/315 311/311/306
f 317/317/312 311/311/306 321/321/316
f 311/311/306 320/320/315 321/321/316
f 319/319/314 322/322/317 315/315/310
f 322/322/317 316/316/311 315/315/310
f 323/323/318 318/318/313 317/317/312
f 321/321/316 323/323/318 317/317/312
f 318/318/313 323/323/318 324/324/319
f 324/324/319 319/319/314 318/318/313
f 319/319/314 324/324/319 325/325/320
f 325/325/320 322/322/317 319/319/314
f 325/325/320 326/326/321 322/322/317
f 326/326/321 316/316/311 322/322/317
f 327/327/322 316/316/311 326/326/321
f 327/327/322 213/211/211 316/316/311
f 328/328/323 323/323/318 321/321/316
f 324/324/319 323/323/318 329/329/324
f 328/328/323 329/329/324 323/323/318
f 324/324/319 329/329/324 330/330/325
f 325/325/320 324/324/319 330/330/325
f 325/325/320 330/330/325 331/331/326
f 331/331/326 326/326/321 325/325/320
f 332/332/327 321/321/316 320/320/315
f 333/333/328 321/321/316 332/332/327
f 333/333/328 328/328/323 321/321/316
f 334/334/329 326/326/321 331/331/326
f 335/335/330 326/326/321 334/334/329
f 326/326/321 335/335/330 327/327/322
f 327/327/322 335/335/330 207/205/205
f 207/205/205 210/208/208 327/327/322
f 210/208/208 213/211/211 327/327/322
f 336/336/331 328/328/323 333/333/328
f 336/336/331 337/337/332 328/328/323
f 337/337/332 329/329/324 328/328/323
f 330/330/325 329/329/324 338/338/333
f 329/329/324 337/337/332 338/338/333
f 338/338/333 339/339/334 330/330/325
f 331/331/326 330/330/325 340/340/335
f 330/330/325 339/339/334 340/340/335
f 340/340/335 341/341/336 331/331/326
f 331/331/326 341/341/336 334/334/329
f 342/342/337 334/334/329 341/341/336
f 343/343/338 334/334/329 342/342/337
f 343/343/338 335/335/330 334/334/329
f 203/201/201 335/335/330 343/343/338
f 335/335/330 203/201/201 207/205/205
f 338/338/333 344/344/339 339/339/334
f 338/338/333 337/337/332 344/344/339
f 345/345/340 337/337/332 336/336/331
f 337/337/332 345/345/340 344/344/339
f 341/341/336 340/340/335 346/346/341
f 346/346/341 340/340/335 339/339/334
f 346/346/341 347/347/342 341/341/336
f 341/341/336 347/347/342 342/342/337
f 343/343/338 342/342/337 202/200/200
f 202/200/200 203/201/201 343/343/338
f 342/342/337 347/347/342 348/348/343
f 202/200/200 342/342/337 348/348/343
f 339/339/334 349/349/344 346/346/341
f 349/349/344 347/347/342 346/346/341
f 339/339/334 344/344/339 350/350/345
f 344/344/339 351/351/346 350/350/345
f 344/344/339 345/345/340 351/351/346
f 352/352/347 347/347/342 349/349/344
f 348/348/343 347/347/342 353/353/348
f 352/352/347 353/353/348 347/347/342
f 353/353/348 354/354/349 348/348/343
f 193/191/191 348/348/343 354/354/349
f 202/200/200 348/348/343 193/191/191
f 355/355/350 349/349/344 350/350/345
f 350/350/345 351/351/346 355/355/350
f 350/350/345 349/349/344 339/339/334
f 352/352/347 349/349/344 356/356/351
f 357/357/352 349/349/344 355/355/350
f 356/356/351 349/349/344 357/357/352
f 358/358/353 352/352/347 356/356/351
f 359/359/354 352/352/347 358/358/353
f 359/359/354 353/353/348 352/352/347
f 360/360/355 354/354/349 353/353/348
f 353/353/348 361/361/356 360/360/355
f 359/359/354 361/361/356 353/353/348
f 360/360/355 362/362/357 354/354/349
f 187/185/185 354/354/349 362/362/357
f 193/191/191 354/354/349 187/185/185
f 363/363/358 361/361/356 359/359/354
f 359/359/354 358/358/353 363/363/358
f 364/364/359 362/362/357 360/360/355
f 361/361/356 364/364/359 360/360/355
f 363/363/358 358/358/353 365/365/360
f 366/366/361 361/361/356 363/363/358
f 367/367/362 364/364/359 361/361/356
f 366/366/361 367/367/362 361/361/356
f 362/362/357 364/364/359 179/177/177
f 180/178/178 362/362/357 179/177/177
f 187/185/185 362/362/357 180/178/178
f 179/177/177 364/364/359 368/368/363
f 364/364/359 367/367/362 368/368/363
f 261/261/256 369/369/364 260/260/255
f 370/370/365 369/369/364 261/261/256
f 369/369/364 370/370/365 371/371/366
f 371/371/366 370/370/365 372/372/367
f 371/371/366 372/372/367 373/373/368
f 373/373/368 372/372/367 374/374/369
f 374/374/369 375/375/370 373/373/368
f 376/376/371 375/375/370 374/374/369
f 375/375/370 376/376/371 377/377/372
f 377/377/372 376/376/371 378/378/373
f 378/378/373 379/379/374 377/377/372
f 380/380/375 379/379/374 378/378/373
f 380/380/375 381/381/376 379/379/374
f 379/379/374 381/381/376 382/382/1
f 381/381/376 383/383/377 382/382/1
f 382/382/1 383/383/377 384/384/378
f 383/383/377 385/385/379 384/384/378
f 384/384/378 385/385/379 386/386/380
f 385/385/379 387/387/381 386/386/380
f 386/386/380 387/387/381 388/388/382
f 387/387/381 389/389/383 388/388/382
f 388/388/382 389/389/383 390/390/384
f 389/389/383 391/391/385 390/390/384
f 390/390/384 391/391/385 392/392/386
f 391/391/385 393/393/387 392/392/386
f 392/392/386 393/393/387 394/394/388
f 393/393/387 395/395/389 394/394/388
f 394/394/388 395/395/389 396/396/40
f 395/395/389 397/397/390 396/396/40
f 396/396/40 397/397/390 398/398/51
f 397/397/390 399/399/391 398/398/51
f 398/398/51 399/399/391 400/400/59
f 399/399/391 401/401/392 400/400/59
f 400/400/59 401/401/392 402/402/393
f 401/401/392 403/403/394 402/402/393
f 402/402/393 403/403/394 404/404/395
f 403/403/394 405/405/396 404/404/395
f 404/404/395 405/405/396 406/406/397
f 405/405/396 407/407/398 406/406/397
f 406/406/397 407/407/398 408/408/399
f 407/407/398 409/409/400 408/408/399
f 408/408/399 409/409/400 410/410/140
f 409/409/400 411/411/401 410/410/140
f 410/410/140 411/411/401 412/412/402
f 411/411/401 413/413/403 412/412/402
f 414/414/404 413/413/403 411/411/401
f 413/413/403 414/414/404 415/415/154
f 415/415/154 414/414/404 416/416/405
f 416/416/405 417/417/406 415/415/154
f 418/418/407 417/417/406 416/416/405
f 419/419/408 366/366/361 363/363/358
f 363/363/358 420/420/409 419/419/408
f 365/365/360 420/420/409 363/363/358
f 421/421/410 367/367/362 366/366/361
f 422/422/411 366/366/361 419/419/408
f 422/422/411 421/421/410 366/366/361
f 367/367/362 421/421/410 423/423/412
f 368/368/363 367/367/362 423/423/412
f 179/177/177 368/368/363 178/176/176
f 423/423/412 424/424/413 368/368/363
f 178/176/176 368/368/363 424/424/413
f 425/425/414 419/419/408 420/420/409
f 426/426/415 419/419/408 425/425/414
f 426/426/415 422/422/411 419/419/408
f 427/427/416 421/421/410 422/422/411
f 423/423/412 421/421/410 428/428/417
f 421/421/410 427/427/416 428/428/417
f 429/429/418 422/422/411 426/426/415
f 429/429/418 427/427/416 422/422/411
f 428/428/417 430/430/419 423/423/412
f 430/430/419 424/424/413 423/423/412
f 424/424/413 431/431/420 178/176/176
f 432/432/421 431/431/420 424/424/413
f 430/430/419 432/432/421 424/424/413
f 433/433/422 429/429/418 426/426/415
f 434/434/423 426/426/415 425/425/414
f 433/433/422 426/426/415 434/434/423
f 435/435/424 427/427/416 429/429/418
f 428/428/417 427/427/416 436/436/425
f 427/427/416 435/435/424 436/436/425
f 437/437/426 430/430/419 428/428/417
f 436/436/425 437/437/426 428/428/417
f 438/438/427 429/429/418 433/433/422
f 438/438/427 435/435/424 429/429/418
f 437/437/426 439/439/428 430/430/419
f 439/439/428 432/432/421 430/430/419
f 434/434/423 440/440/429 433/433/422
f 441/441/430 438/438/427 433/433/422
f 433/433/422 440/440/429 441/441/430
f 442/442/431 435/435/424 438/438/427
f 436/436/425 435/435/424 443/443/432
f 442/442/431 443/443/432 435/435/424
f 444/444/433 437/437/426 436/436/425
f 443/443/432 444/444/433 436/436/425
f 445/445/434 439/439/428 437/437/426
f 444/444/433 445/445/434 437/437/426
f 446/446/435 438/438/427 441/441/430
f 446/446/435 442/442/431 438/438/427
f 447/447/436 442/442/431 446/446/435
f 448/448/437 443/443/432 442/442/431
f 447/447/436 448/448/437 442/442/431
f 448/448/437 449/449/438 443/443/432
f 449/449/438 444/444/433 443/443/432
f 450/450/439 445/445/434 444/444/433
f 449/449/438 450/450/439 444/444/433
f 451/451/440 448/448/437 447/447/436
f 452/452/441 449/449/438 448/448/437
f 448/448/437 451/451/440 452/452/441
f 452/452/441 453/453/442 449/449/438
f 453/453/442 450/450/439 449/449/438
f 452/452/441 451/451/440 454/454/443
f 455/455/444 453/453/442 452/452/441
f 454/454/443 455/455/444 452/452/441
f 455/455/444 456/456/445 453/453/442
f 453/453/442 457/457/446 450/450/439
f 453/453/442 456/456/445 457/457/446
f 458/458/447 455/455/444 454/454/443
f 458/458/447 456/456/445 455/455/444
f 459/459/448 456/456/445 458/458/447
f 462/460/449 463/461/450 460/462/451
f 460/462/451 463/461/450 461/463/452
f 464/464/453 461/463/452 465/465/454
f 465/465/454 461/463/452 463/461/450
f 466/466/455 464/464/453 467/467/456
f 467/467/456 464/464/453 465/465/454
f 465/465/454 463/461/450 469/468/457
f 470/469/458 465/465/454 469/468/457
f 467/467/456 465/465/454 470/469/458
f 468/470/459 466/466/455 471/471/460
f 471/471/460 466/466/455 467/467/456
f 471/471/460 467/467/456 472/472/461
f 472/472/461 467/467/456 470/469/458
f 471/471/460 474/473/462 468/470/459
f 468/470/459 474/473/462 473/474/463
f 474/473/462 471/471/460 475/475/464
f 475/475/464 471/471/460 472/472/461
f 469/468/457 476/476/465 470/469/458
f 470/469/458 477/477/466 472/472/461
f 476/476/465 477/477/466 470/469/458
f 477/477/466 478/478/467 472/472/461
f 472/472/461 478/478/467 475/475/464
f 474/473/462 475/475/464 479/479/468
f 479/479/468 473/474/463 474/473/462
f 480/480/469 473/474/463 479/479/468
f 479/479/468 475/475/464 481/481/470
f 475/475/464 482/482/471 481/481/470
f 478/478/467 482/482/471 475/475/464
f 480/480/469 479/479/468 459/459/448
f 479/479/468 481/481/470 456/456/445
f 459/459/448 479/479/468 456/456/445
f 477/477/466 483/483/472 478/478/467
f 484/484/473 483/483/472 477/477/466
f 476/476/465 484/484/473 477/477/466
f 483/483/472 485/485/474 478/478/467
f 478/478/467 485/485/474 482/482/471
f 456/456/445 481/481/470 457/457/446
f 481/481/470 486/486/475 457/457/446
f 482/482/471 486/486/475 481/481/470
f 485/485/474 487/487/476 482/482/471
f 482/482/471 487/487/476 486/486/475
f 484/484/473 488/488/477 483/483/472
f 483/483/472 489/489/478 485/485/474
f 488/488/477 489/489/478 483/483/472
f 489/489/478 490/490/479 485/485/474
f 485/485/474 490/490/479 487/487/476
f 487/487/476 490/490/479 445/445/434
f 445/445/434 486/486/475 487/487/476
f 450/450/439 486/486/475 445/445/434
f 450/450/439 457/457/446 486/486/475
f 488/488/477 491/491/480 489/489/478
f 489/489/478 492/492/481 490/490/479
f 491/491/480 492/492/481 489/489/478
f 493/493/482 488/488/477 484/484/473
f 494/494/483 491/491/480 488/488/477
f 493/493/482 494/494/483 488/488/477
f 445/445/434 490/490/479 439/439/428
f 432/432/421 490/490/479 492/492/481
f 439/439/428 490/490/479 432/432/421
f 492/492/481 495/495/484 432/432/421
f 491/491/480 495/495/484 492/492/481
f 496/496/485 495/495/484 491/491/480
f 491/491/480 494/494/483 496/496/485
f 496/496/485 494/494/483 497/497/486
f 498/498/487 497/497/486 494/494/483
f 498/498/487 494/494/483 493/493/482
f 432/432/421 495/495/484 431/431/420
f 495/495/484 165/163/163 431/431/420
f 496/496/485 165/163/163 495/495/484
f 499/499/488 165/163/163 496/496/485
f 497/497/486 499/499/488 496/496/485
f 500/500/489 497/497/486 498/498/487
f 500/500/489 501/501/490 497/497/486
f 501/501/490 499/499/488 497/497/486
f 499/499/488 501/501/490 157/155/155
f 499/499/488 157/155/155 165/163/163
f 157/155/155 501/501/490 152/150/150
f 502/502/491 152/150/150 501/501/490
f 502/502/491 501/501/490 500/500/489
f 503/503/492 500/500/489 498/498/487
f 504/504/493 500/500/489 503/503/492
f 504/504/493 502/502/491 500/500/489
f 498/498/487 505/505/494 503/503/492
f 493/493/482 505/505/494 498/498/487
f 431/431/420 165/163/163 171/169/169
f 171/169/169 178/176/176 431/431/420
f 506/506/495 504/504/493 503/503/492
f 507/507/496 503/503/492 505/505/494
f 506/506/495 503/503/492 507/507/496
f 508/508/497 504/504/493 506/506/495
f 509/509/498 502/502/491 504/504/493
f 508/508/497 509/509/498 504/504/493
f 145/143/143 152/150/150 502/502/491
f 136/134/134 502/502/491 509/509/498
f 145/143/143 502/502/491 136/134/134
f 507/507/496 505/505/494 510/510/499
f 505/505/494 493/493/482 511/511/500
f 510/510/499 505/505/494 511/511/500
f 511/511/500 493/493/482 484/484/473
f 506/506/495 512/512/501 508/508/497
f 513/513/502 506/506/495 507/507/496
f 512/512/501 506/506/495 513/513/502
f 513/513/502 507/507/496 514/514/503
f 514/514/503 507/507/496 510/510/499
f 508/508/497 512/512/501 515/515/504
f 516/516/505 509/509/498 508/508/497
f 508/508/497 515/515/504 516/516/505
f 516/516/505 130/128/128 509/509/498
f 509/509/498 130/128/128 136/134/134
f 510/510/499 511/511/500 517/517/506
f 518/518/507 510/510/499 517/517/506
f 514/514/503 510/510/499 518/518/507
f 517/517/506 511/511/500 476/476/465
f 511/511/500 484/484/473 476/476/465
f 513/513/502 519/519/508 512/512/501
f 520/520/509 515/515/504 512/512/501
f 512/512/501 519/519/508 520/520/509
f 514/514/503 521/521/510 513/513/502
f 513/513/502 521/521/510 519/519/508
f 522/522/511 521/521/510 514/514/503
f 514/514/503 523/523/512 522/522/511
f 518/518/507 523/523/512 514/514/503
f 121/119/119 515/515/504 520/520/509
f 515/515/504 121/119/119 524/524/513
f 516/516/505 515/515/504 524/524/513
f 130/128/128 516/516/505 127/125/125
f 127/125/125 516/516/505 524/524/513
f 518/518/507 517/517/506 525/525/514
f 517/517/506 476/476/465 469/468/457
f 525/525/514 517/517/506 469/468/457
f 523/523/512 518/518/507 526/526/515
f 526/526/515 518/518/507 525/525/514
f 519/519/508 135/133/133 520/520/509
f 277/277/272 135/133/133 519/519/508
f 519/519/508 521/521/510 277/277/272
f 129/127/127 121/119/119 520/520/509
f 520/520/509 135/133/133 129/127/127
f 524/524/513 121/119/119 118/116/116
f 117/115/115 524/524/513 118/116/116
f 127/125/125 524/524/513 117/115/115
f 469/468/457 463/461/450 525/525/514
f 525/525/514 462/460/449 526/526/515
f 463/461/450 462/460/449 525/525/514
f 332/332/327 320/320/315 527/527/516
f 527/527/516 320/320/315 529/528/517
f 527/527/516 529/528/517 528/529/518
f 310/310/305 529/528/517 320/320/315
f 528/529/518 529/528/517 530/530/519
f 528/529/518 530/530/519 531/531/520
f 532/532/521 529/528/517 310/310/305
f 532/532/521 530/530/519 529/528/517
f 310/310/305 303/303/298 532/532/521
f 531/531/520 530/530/519 533/533/522
f 534/534/523 530/530/519 532/532/521
f 534/534/523 533/533/522 530/530/519
f 531/531/520 533/533/522 535/535/524
f 532/532/521 303/303/298 536/536/525
f 532/532/521 536/536/525 534/534/523
f 303/303/298 296/296/291 536/536/525
f 537/537/526 533/533/522 534/534/523
f 535/535/524 533/533/522 538/538/527
f 537/537/526 538/538/527 533/533/522
f 539/539/528 537/537/526 534/534/523
f 534/534/523 536/536/525 539/539/528
f 538/538/527 540/540/529 535/535/524
f 536/536/525 296/296/291 541/541/530
f 541/541/530 539/539/528 536/536/525
f 296/296/291 293/293/288 541/541/530
f 542/542/531 537/537/526 539/539/528
f 543/543/532 538/538/527 537/537/526
f 542/542/531 543/543/532 537/537/526
f 544/544/533 540/540/529 538/538/527
f 543/543/532 544/544/533 538/538/527
f 545/545/534 542/542/531 539/539/528
f 545/545/534 539/539/528 541/541/530
f 544/544/533 546/546/535 540/540/529
f 547/547/536 545/545/534 541/541/530
f 541/541/530 293/293/288 547/547/536
f 293/293/288 294/294/289 547/547/536
f 548/548/537 543/543/532 542/542/531
f 549/549/538 542/542/531 545/545/534
f 542/542/531 549/549/538 548/548/537
f 548/548/537 550/550/539 543/543/532
f 550/550/539 544/544/533 543/543/532
f 550/550/539 551/551/540 544/544/533
f 551/551/540 546/546/535 544/544/533
f 552/552/541 549/549/538 545/545/534
f 552/552/541 545/545/534 547/547/536
f 547/547/536 553/553/542 552/552/541
f 547/547/536 294/294/289 553/553/542
f 554/554/543 550/550/539 548/548/537
f 548/548/537 549/549/538 555/555/544
f 555/555/544 554/554/543 548/548/537
f 549/549/538 556/556/545 555/555/544
f 556/556/545 549/549/538 552/552/541
f 554/554/543 557/557/546 550/550/539
f 557/557/546 551/551/540 550/550/539
f 558/558/547 556/556/545 552/552/541
f 552/552/541 553/553/542 558/558/547
f 559/559/548 557/557/546 554/554/543
f 554/554/543 560/560/549 559/559/548
f 560/560/549 554/554/543 555/555/544
f 561/561/550 560/560/549 555/555/544
f 555/555/544 556/556/545 561/561/550
f 556/556/545 562/562/551 561/561/550
f 562/562/551 556/556/545 558/558/547
f 559/559/548 560/560/549 563/563/552
f 564/564/553 560/560/549 561/561/550
f 564/564/553 563/563/552 560/560/549
f 565/565/554 564/564/553 561/561/550
f 561/561/550 562/562/551 565/565/554
f 566/566/555 562/562/551 558/558/547
f 567/567/556 562/562/551 566/566/555
f 562/562/551 567/567/556 565/565/554
f 568/568/557 563/563/552 564/564/553
f 569/569/558 568/568/557 564/564/553
f 569/569/558 564/564/553 565/565/554
f 570/570/559 569/569/558 565/565/554
f 565/565/554 567/567/556 570/570/559
f 571/571/560 567/567/556 566/566/555
f 572/572/561 567/567/556 571/571/560
f 567/567/556 572/572/561 570/570/559
f 573/573/562 568/568/557 569/569/558
f 574/574/563 569/569/558 570/570/559
f 574/574/563 573/573/562 569/569/558
f 574/574/563 570/570/559 575/575/564
f 570/570/559 572/572/561 576/576/565
f 575/575/564 570/570/559 576/576/565
f 571/571/560 577/577/566 572/572/561
f 578/578/567 572/572/561 577/577/566
f 576/576/565 572/572/561 578/578/567
f 576/576/565 578/578/567 575/575/564
f 579/579/568 573/573/562 574/574/563
f 579/579/568 574/574/563 580/580/569
f 580/580/569 574/574/563 575/575/564
f 575/575/564 578/578/567 581/581/570
f 575/575/564 581/581/570 580/580/569
f 580/580/569 581/581/570 582/582/571
f 582/582/571 581/581/570 583/583/572
f 587/584/573 584/585/574 583/583/572
f 583/583/572 581/581/570 587/584/573
f 584/585/574 588/586/575 585/587/576
f 588/586/575 584/585/574 587/584/573
f 585/587/576 588/586/575 589/588/577
f 589/588/577 586/589/578 585/587/576
f 81/81/81 76/76/76 586/589/578
f 81/81/81 586/589/578 589/588/577
f 581/581/570 578/578/567 587/584/573
f 587/584/573 578/578/567 590/590/579
f 590/590/579 588/586/575 587/584/573
f 588/586/575 591/591/580 589/588/577
f 591/591/580 588/586/575 590/590/579
f 589/588/577 86/86/86 81/81/81
f 589/588/577 591/591/580 86/86/86
f 577/577/566 590/590/579 578/578/567
f 590/590/579 592/592/581 591/591/580
f 592/592/581 590/590/579 577/577/566
f 591/591/580 91/90/90 86/86/86
f 591/591/580 592/592/581 91/90/90
f 592/592/581 96/94/94 91/90/90
f 592/592/581 104/102/102 96/94/94
f 577/577/566 104/102/102 592/592/581
f 104/102/102 577/577/566 571/571/560
f 571/571/560 593/593/582 104/102/102
f 104/102/102 593/593/582 107/105/105
f 566/566/555 593/593/582 571/571/560
f 594/594/583 593/593/582 566/566/555
f 594/594/583 263/263/258 593/593/582
f 593/593/582 263/263/258 107/105/105
f 267/267/262 263/263/258 594/594/583
f 295/295/290 594/594/583 566/566/555
f 594/594/583 295/295/290 267/267/262
f 595/595/584 295/295/290 566/566/555
f 566/566/555 558/558/547 595/595/584
f 595/595/584 558/558/547 553/553/542
f 596/596/585 295/295/290 595/595/584
f 553/553/542 596/596/585 595/595/584
f 294/294/289 295/295/290 596/596/585
f 294/294/289 596/596/585 553/553/542
